<svg width="1150" height="263" viewBox="0 0 1150 263" fill="none" xmlns="http://www.w3.org/2000/svg">
<path d="M63.5707 26.6906C58.0407 26.6906 53.0307 28.9306 49.4107 32.5606C45.7707 36.2006 43.5207 41.2106 43.5207 46.7406C43.5207 35.6806 34.5607 26.6906 23.4707 26.6906C29.0207 26.6906 34.0407 24.4506 37.6507 20.8206C41.2907 17.1806 43.5207 12.1706 43.5207 6.64062C43.5207 12.1706 45.7807 17.1806 49.4107 20.8206C53.0207 24.4606 58.0307 26.6906 63.5707 26.6906Z" fill="#FFBE3E"/>
<path d="M43.9798 195.4C42.3598 194.19 40.7898 192.98 39.2298 191.71C38.0498 190.74 36.9298 189.76 35.7998 188.73C27.5898 181.35 20.5298 172.69 14.8598 163.12C12.8498 159.63 11.0198 156.06 9.36977 152.37C4.90977 142.42 1.92977 131.67 0.689766 120.41C0.249766 116.45 0.00976562 112.44 0.00976562 108.36V107.98C0.0397656 96.5496 1.86977 85.5596 5.17977 75.2296C6.41977 71.3896 7.86977 67.6096 9.54977 63.9796C13.6298 54.8796 18.9698 46.4096 25.3198 38.8496C28.3298 40.6796 30.7798 43.3996 32.2898 46.5896C26.9698 53.1496 22.4598 60.4096 18.9698 68.2096C17.4598 71.5196 16.1598 74.9096 15.0398 78.3996C12.0298 87.7296 10.3698 97.6596 10.3398 107.96V108.37C10.3398 112.06 10.5498 115.69 10.9598 119.3C12.0798 129.46 14.7698 139.15 18.8198 148.15C20.2998 151.52 21.9498 154.74 23.8098 157.87C28.3598 165.61 33.9398 172.67 40.3498 178.87C41.1498 179.64 41.9398 180.38 42.7398 181.06C43.7098 181.98 44.7198 182.83 45.7498 183.69C43.7098 187.15 43.1198 191.46 43.9798 195.42V195.4Z" fill="#FFBE3E"/>
<path d="M216.69 108.36C216.69 111.99 216.51 115.63 216.13 119.17C215.75 123.22 215.13 127.2 214.27 131.1C213.21 136.12 211.79 140.99 210.05 145.72C208.19 150.77 205.95 155.64 203.4 160.31C203.25 159.81 203.13 159.31 202.96 158.8C202.87 158.48 202.78 158.18 202.66 157.85C202.48 157.26 202.28 156.64 202.07 156.02C201.95 155.72 201.83 155.43 201.72 155.13C200.75 152.5 199.56 149.96 198.18 147.54C200.04 143.2 201.64 138.77 202.88 134.13C203.35 132.42 203.8 130.67 204.15 128.93C204.95 125.39 205.51 121.78 205.86 118.12C206.18 114.9 206.36 111.65 206.36 108.34C206.36 101.4 205.65 94.64 204.26 88.14C203.52 84.54 202.55 81.02 201.42 77.6C198.23 67.94 193.56 58.96 187.72 50.9C185.56 47.95 183.26 45.11 180.81 42.39C174.05 34.98 166.19 28.6 157.48 23.55C154.35 21.72 151.07 20.06 147.73 18.59C138.69 14.6 128.98 11.94 118.79 10.88C115.36 10.5 111.88 10.32 108.33 10.32H107.83C97.5196 10.38 87.5996 12.03 78.2696 15.08C76.1696 15.73 74.1396 16.5 72.0996 17.3C71.8296 17.27 71.5996 17.27 71.3596 17.27C69.8796 17.27 68.4396 17.09 67.0496 16.74C63.8896 16 60.9996 14.41 58.5996 12.1C60.3096 11.21 62.0596 10.36 63.8296 9.59C67.4896 7.91 71.2396 6.46 75.1096 5.22C85.4096 1.89 96.3996 0.06 107.83 0H108.33C112.23 0 116.07 0.21 119.88 0.62C131.16 1.8 141.91 4.75 151.89 9.16C155.61 10.78 159.18 12.62 162.67 14.65C172.3 20.23 180.98 27.29 188.45 35.47C191.17 38.45 193.71 41.58 196.07 44.86C202.54 53.78 207.68 63.7 211.22 74.36C212.49 78.17 213.55 82.07 214.38 86.06C215.89 93.27 216.68 100.71 216.68 108.36H216.69Z" fill="#FFBE3E"/>
<path d="M216.579 174.3V256.63H205.209V174.3C205.209 160.13 199.769 146.72 189.909 136.54L172.189 118.26L142.779 87.92L150.939 80L151.319 80.39L198.069 128.62C210.009 140.94 216.579 157.15 216.579 174.3Z" fill="white"/>
<path d="M172.191 118.261C166.551 104.821 159.581 92.1208 151.341 80.4008C148.271 76.0608 145.021 71.8408 141.621 67.7908C134.301 59.0208 126.201 51.1008 117.611 44.1908L114.041 41.3008L110.501 44.1908C71.7206 75.4108 46.5006 124.491 40.3606 178.871C39.8606 183.121 39.5006 187.411 39.2706 191.721C39.0006 196.061 38.8906 200.401 38.8906 204.801C38.8906 220.421 40.4606 235.931 43.5606 250.961C44.0306 253.321 44.5306 255.661 45.1006 257.961L46.1306 262.331H181.991L183.021 257.961C183.581 255.631 184.111 253.291 184.591 250.961C187.661 235.931 189.231 220.421 189.231 204.801C189.231 174.231 183.351 144.791 172.221 118.271L172.191 118.261ZM55.1406 250.951C51.8906 235.951 50.2406 220.441 50.2406 204.791C50.2406 203.111 50.2706 201.451 50.3006 199.771C50.3306 199.001 50.3606 198.261 50.3906 197.501C50.4806 194.401 50.6606 191.301 50.8906 188.231C54.8506 135.301 77.7706 87.0508 114.031 55.9808C120.731 61.7408 127.051 68.1208 132.901 75.0908C161.871 109.621 177.821 155.691 177.821 204.801C177.821 220.451 176.171 235.961 172.921 250.961H55.1406V250.951Z" fill="white"/>
<path d="M97.5791 115.969C96.7491 115.529 95.8591 115.359 94.9791 115.359C92.9291 115.359 90.9391 116.489 89.9191 118.439C88.5191 121.259 89.6191 124.679 92.4491 126.099C93.2791 126.509 94.1491 126.729 94.9791 126.729C97.0691 126.729 99.0791 125.569 100.079 123.609C100.499 122.779 100.709 121.889 100.709 121.039C100.709 118.969 99.5691 116.979 97.5891 115.959L97.5791 115.969ZM83.9891 147.999C83.4891 147.829 82.9691 147.779 82.4591 147.779C79.9691 147.779 77.6991 149.419 76.9891 151.929C76.1591 154.959 77.9291 158.099 80.9591 158.929C81.4791 159.079 81.9791 159.129 82.4891 159.129C83.7291 159.129 84.9291 158.719 85.8891 157.989C86.8691 157.269 87.6091 156.239 87.9391 154.979C88.1091 154.459 88.1391 153.949 88.1391 153.449C88.1391 150.959 86.5191 148.689 83.9891 147.999ZM76.8091 181.989H76.3091C73.3891 181.989 70.8991 184.209 70.6391 187.179C70.3791 190.299 72.6891 193.049 75.8091 193.309C75.9891 193.349 76.1591 193.349 76.3291 193.349C77.7891 193.349 79.1191 192.799 80.1491 191.869C81.1691 190.929 81.8491 189.639 81.9791 188.159C81.9991 187.989 81.9991 187.849 81.9991 187.679C81.9991 184.759 79.7691 182.249 76.8091 181.989Z" fill="white"/>
<path d="M114.02 97.6496C112.52 97.6496 111.06 97.0496 110 95.9996C109.74 95.7296 109.5 95.4396 109.3 95.1296C109.09 94.8196 108.92 94.4896 108.77 94.1496C108.62 93.8096 108.52 93.4496 108.45 93.0896C108.38 92.7296 108.34 92.3496 108.34 91.9796C108.34 91.6096 108.38 91.2396 108.45 90.8596C108.52 90.4996 108.63 90.1396 108.77 89.7996C108.91 89.4596 109.09 89.1296 109.3 88.8196C109.51 88.5096 109.74 88.2196 110 87.9596C111.32 86.6396 113.29 86.0296 115.14 86.3996C115.5 86.4696 115.85 86.5896 116.2 86.7296C116.54 86.8596 116.87 87.0496 117.17 87.2496C117.49 87.4596 117.78 87.6896 118.04 87.9596C119.09 89.0096 119.7 90.4796 119.7 91.9796C119.7 92.3396 119.67 92.7196 119.59 93.0896C119.52 93.4496 119.41 93.8096 119.27 94.1496C119.13 94.4896 118.95 94.8196 118.74 95.1296C118.53 95.4396 118.3 95.7296 118.04 95.9996C117.78 96.2596 117.49 96.4996 117.17 96.6996C116.87 96.9096 116.54 97.0796 116.2 97.2196C115.85 97.3596 115.5 97.4796 115.14 97.5496C114.77 97.6196 114.4 97.6496 114.02 97.6496Z" fill="white"/>
<path d="M157.429 187.16C157.179 184.2 154.719 181.97 151.799 181.97C151.629 181.97 151.459 181.97 151.289 181.98C148.159 182.24 145.839 185 146.119 188.12C146.249 189.61 146.939 190.92 147.959 191.82C148.979 192.77 150.319 193.31 151.779 193.31C151.939 193.31 152.119 193.31 152.289 193.3C155.229 193.05 157.459 190.59 157.459 187.67C157.459 187.5 157.459 187.33 157.429 187.16ZM151.119 151.9C150.429 149.38 148.119 147.75 145.619 147.75C145.139 147.75 144.629 147.82 144.119 147.95C141.089 148.78 139.339 151.93 140.169 154.93C140.509 156.2 141.259 157.25 142.229 157.96C143.219 158.69 144.399 159.11 145.659 159.11C146.139 159.11 146.679 159.05 147.159 158.91C149.699 158.21 151.339 155.92 151.339 153.4C151.339 152.92 151.269 152.41 151.119 151.9ZM138.149 118.43C137.129 116.46 135.149 115.33 133.079 115.33C132.209 115.33 131.349 115.53 130.509 115.96C127.709 117.39 126.589 120.81 128.029 123.61C129.019 125.58 131.029 126.7 133.089 126.7C133.959 126.7 134.849 126.51 135.659 126.09C137.639 125.08 138.779 123.1 138.779 121.02C138.779 120.16 138.579 119.27 138.149 118.44V118.43Z" fill="white"/>
<path d="M238.659 250.949H18.3789V262.319H238.659V250.949Z" fill="white"/>
</svg>