<?xml version="1.0" encoding="UTF-8"?>
<svg id="Layer_2" data-name="Layer 2" xmlns="http://www.w3.org/2000/svg" viewBox="0 0 58.14 58.05">
  <defs>
    <style>
      .cls-1 {
        fill: #131f48;
      }
    </style>
  </defs>
  <g id="Untitled-1_Image" data-name="Untitled-1 Image">
    <g>
      <path class="cls-1" d="m58.12,25.83v-4.31c0-.16,0-.32-.03-.47-.07-.59-.5-.97-1.02-.91-.3.03-.63.24-.97.61-.17.18-.16.45-.16.69v.11c0,2.05,0,4.09,0,6.14v1.94s-.08,0-.11,0c-.25,0-.48-.02-.71.02-.41.07-.61-.06-.83-.56-1.65-3.59-2.9-7.56-3.82-12.14-.79-3.92-1.28-8.1-1.51-12.81-.02-.5-.02-1.01-.01-1.51,0-.15,0-.31,0-.46h6.99v1.16c0,1.23,0,2.44,0,3.65,0,.8.43,1.33,1.08,1.34.28,0,.53-.09.72-.28.24-.23.36-.6.36-1.05,0-1.84,0-3.69,0-5.53,0-1.14-.33-1.46-1.47-1.46H1.51C.53,0,.15.37.14,1.33l-.04,9.11c-.03,7.29-.07,14.57-.09,21.86,0,2.68,0,5.35,0,8.03v6.78c0,3.21,0,6.42,0,9.63,0,.5.1.81.32,1.03.21.21.54.29,1,.29.83-.02,1.67-.06,2.38-.1,4.32-.25,8.67-1.27,12.95-3.05.49-.2.78-.49.86-.86.08-.38-.08-.78-.47-1.2l-.41-.43c-.51-.54-1.03-1.09-1.49-1.67-2.91-3.65-4.55-7.75-4.88-12.18-.11-1.46-.11-2.95-.11-4.39,0-.81,0-1.62-.02-2.43,0-.19.04-.23.31-.34,7.69-3.29,13.34-8.92,16.79-16.74.63-1.42,1.11-2.91,1.57-4.34.13-.39.25-.78.38-1.16.11.38.22.75.33,1.13.32,1.11.65,2.26,1.09,3.35,3.24,8.05,8.97,14,17.03,17.69.29.13.35.22.34.5-.01.56,0,1.12,0,1.69,0,.75.02,1.53-.02,2.29l-.04.73c-.07,1.45-.14,2.95-.4,4.37-.83,4.49-2.97,8.48-6.37,11.86-.46.46-.64.86-.57,1.23.07.38.41.69,1.02.94,4.78,2,9.85,3.04,15.05,3.11h.08c.41,0,.82-.04,1.07-.3.26-.26.32-.66.32-1.17v-5.58c.02-4.96.03-9.92.03-14.87,0-3.43,0-6.87-.02-10.3Zm-2.21,6.05v3.3h-5.75v-3.3h5.75Zm-.02,5.54v18.44c-4.3-.14-8.34-.94-12.33-2.44,4.16-4.58,6.31-9.82,6.58-15.99h5.75Zm-8.35-8.52c-4.54-2.1-8.34-5.23-11.31-9.3-3.54-4.84-5.49-10.54-5.96-17.41h7.03c.2,5.16,1.21,10.09,3,14.64,1.76,4.45,4.19,8.51,7.24,12.07Zm3.29.27c-4.77-4.92-8.14-10.91-10-17.8-.77-2.86-1.22-5.82-1.33-8.78,0-.12,0-.25,0-.38h7.21c.29,10.95,2.02,19.68,5.42,27.42-.53.04-.91-.05-1.3-.46Zm-44.71.46c3.39-7.69,5.12-16.43,5.43-27.46h7.24c-.02.27-.03.53-.05.8-.05.77-.09,1.5-.18,2.24-.6,5.38-2.18,10.47-4.68,15.11-1.73,3.22-3.88,6.16-6.37,8.76-.41.43-.83.6-1.4.55Zm1.82,2.22v3.32H2.33v-3.32h5.61Zm-2.44-6.53c-.29.81-.63,1.62-.97,2.4-.22.51-.44,1.02-.65,1.53-.13.33-.27.41-.59.38-.15-.02-.31-.02-.46-.02-.12,0-.24,0-.36,0-.05,0-.1,0-.15,0V2.19h7s0,.06,0,.09c-.18,8.7-1.43,16.24-3.83,23.06ZM27.98,2.19c-.43,6.4-2.18,11.82-5.34,16.54-3.51,5.26-8.47,8.69-12.06,10.25,3.15-3.59,5.56-7.57,7.37-12.15,1.79-4.53,2.8-9.46,3-14.64h7.03ZM7.97,37.42c.26,6.11,2.47,11.48,6.58,15.98-2.49,1.2-9.5,2.58-12.34,2.44v-18.43h5.76Z"/>
      <path class="cls-1" d="m58.1,12.99c-.01-.61-.39-1.02-.99-1.07-.31-.03-.59.06-.8.24-.2.17-.32.42-.34.7-.05.89-.05,1.8,0,2.69.02.28.14.53.34.7.18.16.43.25.69.25.04,0,.07,0,.11,0,.6-.05.98-.46.99-1.07,0-.27,0-.55,0-.82v-.37s0-.39,0-.39c0-.29,0-.57,0-.86Z"/>
    </g>
  </g>
</svg>