<?xml version="1.0" encoding="UTF-8"?>
<svg id="Layer_2" data-name="Layer 2" xmlns="http://www.w3.org/2000/svg" viewBox="0 0 53.85 60.21">
  <defs>
    <style>
      .cls-1 {
        fill: #131f48;
      }
    </style>
  </defs>
  <g id="Untitled-1_Image" data-name="Untitled-1 Image">
    <g>
      <path class="cls-1" d="m53.84,58.43V10.46c0-.14,0-.27,0-.41,0-.38-.14-.69-.43-.93-.19-.16-.39-.33-.6-.47-1.02-.69-2.05-1.37-3.07-2.06-1.67-1.13-3.35-2.24-5-3.4-1.22-.86-2.4-1.76-3.57-2.68C40.71.15,40.24,0,39.66,0c-6.54.01-13.09,0-19.63,0-.33,0-.61.08-.87.28-.76.58-1.52,1.17-2.31,1.72-3.31,2.3-6.63,4.59-9.96,6.87-.44.3-.71.66-.73,1.19,0,.16-.03.31-.03.47,0,1.86,0,3.72,0,5.58,0,.21.03.43.1.63.18.52.62.82,1.17.82.54,0,1-.29,1.17-.81.08-.24.11-.5.11-.75,0-1.57,0-3.14,0-4.7v-.58c1.94-1.3,3.85-2.58,5.8-3.86.17.31.31.55.44.78,1.91,3.51,3.81,7.01,5.72,10.52.27.5.56.99.88,1.45.35.5.91.62,1.45.34.24-.12.48-.27.7-.42,1.52-1.01,3.03-2.02,4.54-3.03.14-.09.28-.16.46-.27v41.38c-.57.12-19.54.11-20-.02v-.69c0-5.86,0-11.72,0-17.58,0-.27-.02-.55-.09-.81-.16-.56-.61-.88-1.18-.88-.56,0-1.02.31-1.19.86-.07.22-.09.46-.09.69,0,1.25,0,2.51,0,3.76,0,5.21,0,10.42,0,15.64,0,.4.02.79.27,1.12.15.19.36.34.54.51h45.98c.72-.33.99-.9.93-1.67,0-.04,0-.08,0-.12ZM40.25,3.01c1.07.8,2.08,1.56,3.15,2.37-2.1,3.86-4.21,7.71-6.33,11.62-1.76-1.17-3.48-2.32-5.23-3.49,2.82-3.52,5.61-7,8.41-10.5Zm-17.34,13.99c-2.13-3.88-4.22-7.74-6.34-11.62,1.05-.79,2.08-1.56,3.15-2.37,2.81,3.5,5.59,6.98,8.41,10.5-1.75,1.16-3.45,2.3-5.23,3.48Zm-.29-14.43h14.74c-2.48,3.1-4.89,6.12-7.37,9.21-2.47-3.07-4.89-6.1-7.37-9.21Zm28.64,55.1h-19.96V16.22c.2.13.36.23.52.34,1.56,1.05,3.12,2.1,4.68,3.15.23.15.47.31.72.38.59.16,1.11-.1,1.46-.72.49-.87.96-1.75,1.44-2.63,1.68-3.07,3.36-6.14,5.04-9.22.09-.17.19-.34.33-.57,1.97,1.28,3.87,2.51,5.76,3.74v46.96Z"/>
      <path class="cls-1" d="m7.43,35.14c.74-.01,1.24-.58,1.27-1.48.07-2.32,1.79-4.21,3.8-4.64.48-.1.97-.12,1.45-.21.6-.11.99-.6.99-1.21,0-.66-.47-1.19-1.14-1.26-.31-.03-.62-.06-.93-.1-2.33-.36-4.07-2.34-4.17-4.69,0-.21-.04-.43-.1-.63-.17-.52-.61-.83-1.15-.84-.56-.01-1.03.3-1.21.84-.07.2-.07.42-.11.63-.07.4-.1.82-.2,1.21-.47,1.71-2.06,3.47-4.71,3.59-.67.03-1.16.5-1.21,1.13-.05.69.33,1.21,1.02,1.36.17.04.35.06.52.07,2.3.11,4.48,2.11,4.58,4.74.03.93.54,1.52,1.3,1.5Zm-1.97-7.55c.63-.63,1.29-1.29,1.95-1.95.66.65,1.32,1.31,1.96,1.95-.64.64-1.31,1.31-1.95,1.96-.64-.65-1.31-1.32-1.95-1.97Z"/>
      <path class="cls-1" d="m37.98,23.83c-.14,0-.27,0-.41,0-.84.05-1.33.54-1.33,1.39,0,3.31-.02,6.62,0,9.93.02,2.06,1.64,3.7,3.69,3.74,1.72.04,3.45.04,5.17,0,2.09-.05,3.68-1.7,3.69-3.79,0-1.61,0-3.21,0-4.82,0-1.59-.04-3.17.01-4.76.05-1.3-.6-1.73-1.72-1.72-3.04.04-6.07.01-9.11.01Zm8.3,3.06c0,2.6,0,5.21,0,7.81,0,.16,0,.31-.02.47-.09.76-.52,1.17-1.27,1.18-1.65.01-3.29.01-4.94,0-.74,0-1.25-.47-1.25-1.19-.01-2.88,0-5.76,0-8.64,0-.04.02-.07.05-.16h7.4c.01.19.03.36.03.53Z"/>
      <path class="cls-1" d="m33.74,23.85c.66,0,1.28-.59,1.28-1.26,0-.66-.59-1.28-1.26-1.28-.66,0-1.28.59-1.28,1.26,0,.66.59,1.28,1.26,1.29Z"/>
      <path class="cls-1" d="m33.73,28.83c-.67.01-1.27.62-1.26,1.29.01.67.62,1.27,1.29,1.26.67-.01,1.27-.63,1.26-1.29,0-.67-.62-1.27-1.29-1.26Z"/>
      <path class="cls-1" d="m33.74,38.9c.66,0,1.28-.59,1.28-1.26,0-.66-.59-1.28-1.26-1.28-.66,0-1.28.59-1.28,1.26,0,.66.59,1.28,1.26,1.29Z"/>
      <path class="cls-1" d="m33.73,43.89c-.67.02-1.26.63-1.25,1.29.02.67.63,1.27,1.29,1.25.67-.02,1.26-.63,1.25-1.3-.02-.67-.63-1.26-1.29-1.25Z"/>
      <path class="cls-1" d="m33.76,51.41c-.66,0-1.28.59-1.28,1.26,0,.66.59,1.28,1.26,1.29.66,0,1.28-.59,1.29-1.26,0-.66-.59-1.28-1.26-1.28Z"/>
    </g>
  </g>
</svg>