<svg xmlns="http://www.w3.org/2000/svg" xmlns:xlink="http://www.w3.org/1999/xlink" width="100" height="100" viewBox="0 0 100 100">
  <defs>
    <filter id="Icon_awesome-facebook-f" x="25.232" y="18.293" width="45.536" height="69.413" filterUnits="userSpaceOnUse">
      <feOffset dy="3" input="SourceAlpha"/>
      <!-- <feGaussianBlur stdDeviation="3" result="blur"/> -->
      <!-- <feFlood flood-opacity="0.161"/> -->
      <!-- <feComposite operator="in" in2="blur"/> -->
      <!-- <feComposite in="SourceGraphic"/> -->
    </filter>
  </defs>
  <g id="Group_7292" data-name="Group 7292" transform="translate(-226 -2466)">
    <path id="Path_95578" data-name="Path 95578" d="M50,0A50,50,0,1,1,0,50,50,50,0,0,1,50,0Z" transform="translate(226 2466)" fill="#ffffff"/>
    <g transform="matrix(1, 0, 0, 1, 226, 2466)" filter="url(#Icon_awesome-facebook-f)">
      <path id="Icon_awesome-facebook-f-2" data-name="Icon awesome-facebook-f" d="M27.341,28.92l1.428-9.3H19.841V13.577c0-2.546,1.247-5.027,5.246-5.027h4.059V.629A49.5,49.5,0,0,0,21.941,0C14.588,0,9.782,4.456,9.782,12.524v7.091H1.609v9.3H9.782V51.413H19.841V28.92Z" transform="translate(32.62 24.29)" fill="#14315D"/>
    </g>
  </g>
</svg>
