<svg xmlns="http://www.w3.org/2000/svg" xmlns:xlink="http://www.w3.org/1999/xlink" width="100" height="100" viewBox="0 0 100 100">
  <defs>
    <filter id="Icon_awesome-instagram" x="20.859" y="23.863" width="58.281" height="58.272" filterUnits="userSpaceOnUse">
      <feOffset dy="3" input="SourceAlpha"/>
      <feGaussianBlur stdDeviation="3" result="blur"/>
      <feFlood flood-opacity="0.161"/>
      <feComposite operator="in" in2="blur"/>
      <feComposite in="SourceGraphic"/>
    </filter>
  </defs>
  <g id="Group_7294" data-name="Group 7294" transform="translate(-476 -2466)">
    <path id="Path_95580" data-name="Path 95580" d="M50,0A50,50,0,1,1,0,50,50,50,0,0,1,50,0Z" transform="translate(476 2466)" fill="#ffffff"/>
    <g transform="matrix(1, 0, 0, 1, 476, 2466)" filter="url(#Icon_awesome-instagram)">
      <path id="Icon_awesome-instagram-2" data-name="Icon awesome-instagram" d="M20.14,12.049A10.325,10.325,0,1,0,30.465,22.374,10.309,10.309,0,0,0,20.14,12.049Zm0,17.038a6.713,6.713,0,1,1,6.713-6.713A6.725,6.725,0,0,1,20.14,29.087ZM33.3,11.626a2.408,2.408,0,1,1-2.408-2.408A2.4,2.4,0,0,1,33.3,11.626Zm6.839,2.444c-.153-3.226-.89-6.084-3.253-8.438s-5.212-3.091-8.438-3.253c-3.325-.189-13.291-.189-16.616,0-3.217.153-6.075.89-8.438,3.244S.3,10.835.136,14.062c-.189,3.325-.189,13.291,0,16.616.153,3.226.89,6.084,3.253,8.438s5.212,3.091,8.438,3.253c3.325.189,13.291.189,16.616,0,3.226-.153,6.084-.89,8.438-3.253s3.091-5.212,3.253-8.438c.189-3.325.189-13.282,0-16.607Zm-4.3,20.174a6.8,6.8,0,0,1-3.828,3.828c-2.651,1.051-8.941.809-11.871.809s-9.229.234-11.871-.809a6.8,6.8,0,0,1-3.828-3.828c-1.051-2.651-.809-8.941-.809-11.871S3.4,13.145,4.441,10.5A6.8,6.8,0,0,1,8.269,6.675c2.651-1.051,8.941-.809,11.871-.809s9.229-.234,11.871.809A6.8,6.8,0,0,1,35.839,10.5c1.051,2.651.809,8.941.809,11.871S36.891,31.6,35.839,34.245Z" transform="translate(29.86 27.63)" fill="#14315D"/>
    </g>
  </g>
</svg>
