<svg width="1150" height="263" viewBox="0 0 1150 263" fill="none" xmlns="http://www.w3.org/2000/svg">
<path d="M63.5707 26.6906C58.0407 26.6906 53.0307 28.9306 49.4107 32.5606C45.7707 36.2006 43.5207 41.2106 43.5207 46.7406C43.5207 35.6806 34.5607 26.6906 23.4707 26.6906C29.0207 26.6906 34.0407 24.4506 37.6507 20.8206C41.2907 17.1806 43.5207 12.1706 43.5207 6.64062C43.5207 12.1706 45.7807 17.1806 49.4107 20.8206C53.0207 24.4606 58.0307 26.6906 63.5707 26.6906Z" fill="#FFBE3E"/>
<path d="M43.9798 195.4C42.3598 194.19 40.7898 192.98 39.2298 191.71C38.0498 190.74 36.9298 189.76 35.7998 188.73C27.5898 181.35 20.5298 172.69 14.8598 163.12C12.8498 159.63 11.0198 156.06 9.36977 152.37C4.90977 142.42 1.92977 131.67 0.689766 120.41C0.249766 116.45 0.00976562 112.44 0.00976562 108.36V107.98C0.0397656 96.5496 1.86977 85.5596 5.17977 75.2296C6.41977 71.3896 7.86977 67.6096 9.54977 63.9796C13.6298 54.8796 18.9698 46.4096 25.3198 38.8496C28.3298 40.6796 30.7798 43.3996 32.2898 46.5896C26.9698 53.1496 22.4598 60.4096 18.9698 68.2096C17.4598 71.5196 16.1598 74.9096 15.0398 78.3996C12.0298 87.7296 10.3698 97.6596 10.3398 107.96V108.37C10.3398 112.06 10.5498 115.69 10.9598 119.3C12.0798 129.46 14.7698 139.15 18.8198 148.15C20.2998 151.52 21.9498 154.74 23.8098 157.87C28.3598 165.61 33.9398 172.67 40.3498 178.87C41.1498 179.64 41.9398 180.38 42.7398 181.06C43.7098 181.98 44.7198 182.83 45.7498 183.69C43.7098 187.15 43.1198 191.46 43.9798 195.42V195.4Z" fill="#FFBE3E"/>
<path d="M216.69 108.36C216.69 111.99 216.51 115.63 216.13 119.17C215.75 123.22 215.13 127.2 214.27 131.1C213.21 136.12 211.79 140.99 210.05 145.72C208.19 150.77 205.95 155.64 203.4 160.31C203.25 159.81 203.13 159.31 202.96 158.8C202.87 158.48 202.78 158.18 202.66 157.85C202.48 157.26 202.28 156.64 202.07 156.02C201.95 155.72 201.83 155.43 201.72 155.13C200.75 152.5 199.56 149.96 198.18 147.54C200.04 143.2 201.64 138.77 202.88 134.13C203.35 132.42 203.8 130.67 204.15 128.93C204.95 125.39 205.51 121.78 205.86 118.12C206.18 114.9 206.36 111.65 206.36 108.34C206.36 101.4 205.65 94.64 204.26 88.14C203.52 84.54 202.55 81.02 201.42 77.6C198.23 67.94 193.56 58.96 187.72 50.9C185.56 47.95 183.26 45.11 180.81 42.39C174.05 34.98 166.19 28.6 157.48 23.55C154.35 21.72 151.07 20.06 147.73 18.59C138.69 14.6 128.98 11.94 118.79 10.88C115.36 10.5 111.88 10.32 108.33 10.32H107.83C97.5196 10.38 87.5996 12.03 78.2696 15.08C76.1696 15.73 74.1396 16.5 72.0996 17.3C71.8296 17.27 71.5996 17.27 71.3596 17.27C69.8796 17.27 68.4396 17.09 67.0496 16.74C63.8896 16 60.9996 14.41 58.5996 12.1C60.3096 11.21 62.0596 10.36 63.8296 9.59C67.4896 7.91 71.2396 6.46 75.1096 5.22C85.4096 1.89 96.3996 0.06 107.83 0H108.33C112.23 0 116.07 0.21 119.88 0.62C131.16 1.8 141.91 4.75 151.89 9.16C155.61 10.78 159.18 12.62 162.67 14.65C172.3 20.23 180.98 27.29 188.45 35.47C191.17 38.45 193.71 41.58 196.07 44.86C202.54 53.78 207.68 63.7 211.22 74.36C212.49 78.17 213.55 82.07 214.38 86.06C215.89 93.27 216.68 100.71 216.68 108.36H216.69Z" fill="#FFBE3E"/>
<path d="M216.579 174.3V256.63H205.209V174.3C205.209 160.13 199.769 146.72 189.909 136.54L172.189 118.26L142.779 87.92L150.939 80L151.319 80.39L198.069 128.62C210.009 140.94 216.579 157.15 216.579 174.3Z" fill="white"/>
<path d="M172.191 118.261C166.551 104.821 159.581 92.1208 151.341 80.4008C148.271 76.0608 145.021 71.8408 141.621 67.7908C134.301 59.0208 126.201 51.1008 117.611 44.1908L114.041 41.3008L110.501 44.1908C71.7206 75.4108 46.5006 124.491 40.3606 178.871C39.8606 183.121 39.5006 187.411 39.2706 191.721C39.0006 196.061 38.8906 200.401 38.8906 204.801C38.8906 220.421 40.4606 235.931 43.5606 250.961C44.0306 253.321 44.5306 255.661 45.1006 257.961L46.1306 262.331H181.991L183.021 257.961C183.581 255.631 184.111 253.291 184.591 250.961C187.661 235.931 189.231 220.421 189.231 204.801C189.231 174.231 183.351 144.791 172.221 118.271L172.191 118.261ZM55.1406 250.951C51.8906 235.951 50.2406 220.441 50.2406 204.791C50.2406 203.111 50.2706 201.451 50.3006 199.771C50.3306 199.001 50.3606 198.261 50.3906 197.501C50.4806 194.401 50.6606 191.301 50.8906 188.231C54.8506 135.301 77.7706 87.0508 114.031 55.9808C120.731 61.7408 127.051 68.1208 132.901 75.0908C161.871 109.621 177.821 155.691 177.821 204.801C177.821 220.451 176.171 235.961 172.921 250.961H55.1406V250.951Z" fill="white"/>
<path d="M97.5791 115.969C96.7491 115.529 95.8591 115.359 94.9791 115.359C92.9291 115.359 90.9391 116.489 89.9191 118.439C88.5191 121.259 89.6191 124.679 92.4491 126.099C93.2791 126.509 94.1491 126.729 94.9791 126.729C97.0691 126.729 99.0791 125.569 100.079 123.609C100.499 122.779 100.709 121.889 100.709 121.039C100.709 118.969 99.5691 116.979 97.5891 115.959L97.5791 115.969ZM83.9891 147.999C83.4891 147.829 82.9691 147.779 82.4591 147.779C79.9691 147.779 77.6991 149.419 76.9891 151.929C76.1591 154.959 77.9291 158.099 80.9591 158.929C81.4791 159.079 81.9791 159.129 82.4891 159.129C83.7291 159.129 84.9291 158.719 85.8891 157.989C86.8691 157.269 87.6091 156.239 87.9391 154.979C88.1091 154.459 88.1391 153.949 88.1391 153.449C88.1391 150.959 86.5191 148.689 83.9891 147.999ZM76.8091 181.989H76.3091C73.3891 181.989 70.8991 184.209 70.6391 187.179C70.3791 190.299 72.6891 193.049 75.8091 193.309C75.9891 193.349 76.1591 193.349 76.3291 193.349C77.7891 193.349 79.1191 192.799 80.1491 191.869C81.1691 190.929 81.8491 189.639 81.9791 188.159C81.9991 187.989 81.9991 187.849 81.9991 187.679C81.9991 184.759 79.7691 182.249 76.8091 181.989Z" fill="white"/>
<path d="M114.02 97.6496C112.52 97.6496 111.06 97.0496 110 95.9996C109.74 95.7296 109.5 95.4396 109.3 95.1296C109.09 94.8196 108.92 94.4896 108.77 94.1496C108.62 93.8096 108.52 93.4496 108.45 93.0896C108.38 92.7296 108.34 92.3496 108.34 91.9796C108.34 91.6096 108.38 91.2396 108.45 90.8596C108.52 90.4996 108.63 90.1396 108.77 89.7996C108.91 89.4596 109.09 89.1296 109.3 88.8196C109.51 88.5096 109.74 88.2196 110 87.9596C111.32 86.6396 113.29 86.0296 115.14 86.3996C115.5 86.4696 115.85 86.5896 116.2 86.7296C116.54 86.8596 116.87 87.0496 117.17 87.2496C117.49 87.4596 117.78 87.6896 118.04 87.9596C119.09 89.0096 119.7 90.4796 119.7 91.9796C119.7 92.3396 119.67 92.7196 119.59 93.0896C119.52 93.4496 119.41 93.8096 119.27 94.1496C119.13 94.4896 118.95 94.8196 118.74 95.1296C118.53 95.4396 118.3 95.7296 118.04 95.9996C117.78 96.2596 117.49 96.4996 117.17 96.6996C116.87 96.9096 116.54 97.0796 116.2 97.2196C115.85 97.3596 115.5 97.4796 115.14 97.5496C114.77 97.6196 114.4 97.6496 114.02 97.6496Z" fill="white"/>
<path d="M157.429 187.16C157.179 184.2 154.719 181.97 151.799 181.97C151.629 181.97 151.459 181.97 151.289 181.98C148.159 182.24 145.839 185 146.119 188.12C146.249 189.61 146.939 190.92 147.959 191.82C148.979 192.77 150.319 193.31 151.779 193.31C151.939 193.31 152.119 193.31 152.289 193.3C155.229 193.05 157.459 190.59 157.459 187.67C157.459 187.5 157.459 187.33 157.429 187.16ZM151.119 151.9C150.429 149.38 148.119 147.75 145.619 147.75C145.139 147.75 144.629 147.82 144.119 147.95C141.089 148.78 139.339 151.93 140.169 154.93C140.509 156.2 141.259 157.25 142.229 157.96C143.219 158.69 144.399 159.11 145.659 159.11C146.139 159.11 146.679 159.05 147.159 158.91C149.699 158.21 151.339 155.92 151.339 153.4C151.339 152.92 151.269 152.41 151.119 151.9ZM138.149 118.43C137.129 116.46 135.149 115.33 133.079 115.33C132.209 115.33 131.349 115.53 130.509 115.96C127.709 117.39 126.589 120.81 128.029 123.61C129.019 125.58 131.029 126.7 133.089 126.7C133.959 126.7 134.849 126.51 135.659 126.09C137.639 125.08 138.779 123.1 138.779 121.02C138.779 120.16 138.579 119.27 138.149 118.44V118.43Z" fill="white"/>
<path d="M238.659 250.949H18.3789V262.319H238.659V250.949Z" fill="white"/>
<path d="M306.769 171.639C301.339 169.259 297.069 165.889 293.959 161.519C290.849 157.149 289.299 152.059 289.299 146.229H307.059C307.449 150.599 309.169 154.189 312.229 156.999C315.289 159.819 319.579 161.219 325.109 161.219C330.639 161.219 335.299 159.839 338.499 157.069C341.699 154.309 343.299 150.739 343.299 146.369C343.299 142.979 342.299 140.209 340.309 138.069C338.319 135.939 335.849 134.289 332.889 133.119C329.929 131.959 325.829 130.699 320.589 129.339C313.989 127.589 308.629 125.819 304.509 124.029C300.379 122.239 296.869 119.449 293.959 115.659C291.049 111.879 289.589 106.829 289.589 100.519C289.589 94.6992 291.039 89.5992 293.959 85.2292C296.869 80.8592 300.949 77.5192 306.189 75.1892C311.429 72.8592 317.489 71.6992 324.379 71.6992C334.179 71.6992 342.209 74.1492 348.469 79.0492C354.729 83.9492 358.199 90.6692 358.879 99.2092H340.539C340.249 95.5192 338.499 92.3692 335.299 89.7492C332.099 87.1292 327.879 85.8192 322.639 85.8192C317.879 85.8192 313.999 87.0392 310.989 89.4592C307.979 91.8892 306.479 95.3792 306.479 99.9392C306.479 103.049 307.429 105.589 309.319 107.579C311.209 109.569 313.619 111.149 316.529 112.309C319.439 113.479 323.419 114.739 328.469 116.099C335.169 117.949 340.619 119.789 344.839 121.629C349.059 123.479 352.649 126.319 355.609 130.149C358.569 133.989 360.049 139.099 360.049 145.499C360.049 150.649 358.669 155.499 355.899 160.059C353.129 164.619 349.109 168.279 343.819 171.049C338.529 173.819 332.299 175.199 325.119 175.199C318.329 175.199 312.209 174.009 306.779 171.629L306.769 171.639Z" fill="white"/>
<path d="M477.079 153.519H434.719L427.439 174.189H410.119L446.359 72.8789H465.569L501.809 174.189H484.339L477.059 153.519H477.079ZM472.419 139.979L455.969 92.9589L439.379 139.979H472.419Z" fill="white"/>
<path d="M641.12 73.0195L603.13 174.18H583.909L545.77 73.0195H563.53L593.51 157.15L623.64 73.0195H641.109H641.12Z" fill="white"/>
<path d="M707.93 73.0195V174.18H691.34V73.0195H707.93Z" fill="white"/>
<path d="M782.748 160.799H816.958V174.189H766.158V73.0293H782.748V160.799Z" fill="white"/>
<path d="M883.758 160.799H917.968V174.189H867.168V73.0293H883.758V160.799Z" fill="white"/>
<path d="M984.78 86.4089V116.099H1019.72V129.639H984.78V160.649H1024.08V174.189H968.18V72.8789H1024.08V86.4189H984.78V86.4089Z" fill="white"/>
<path d="M1095.84 171.639C1090.41 169.259 1086.14 165.889 1083.03 161.519C1079.92 157.149 1078.37 152.059 1078.37 146.229H1096.13C1096.52 150.599 1098.24 154.189 1101.3 156.999C1104.36 159.819 1108.65 161.219 1114.18 161.219C1119.71 161.219 1124.37 159.839 1127.57 157.069C1130.77 154.309 1132.37 150.739 1132.37 146.369C1132.37 142.979 1131.37 140.209 1129.38 138.069C1127.39 135.939 1124.92 134.289 1121.96 133.119C1119 131.959 1114.9 130.699 1109.66 129.339C1103.06 127.589 1097.7 125.819 1093.58 124.029C1089.45 122.239 1085.94 119.449 1083.03 115.659C1080.12 111.879 1078.66 106.829 1078.66 100.519C1078.66 94.6992 1080.11 89.5992 1083.03 85.2292C1085.94 80.8592 1090.02 77.5192 1095.26 75.1892C1100.5 72.8592 1106.56 71.6992 1113.45 71.6992C1123.25 71.6992 1131.28 74.1492 1137.54 79.0492C1143.8 83.9492 1147.27 90.6692 1147.95 99.2092H1129.61C1129.32 95.5192 1127.57 92.3692 1124.37 89.7492C1121.17 87.1292 1116.95 85.8192 1111.71 85.8192C1106.95 85.8192 1103.07 87.0392 1100.06 89.4592C1097.05 91.8892 1095.55 95.3792 1095.55 99.9392C1095.55 103.049 1096.5 105.589 1098.39 107.579C1100.28 109.569 1102.69 111.149 1105.6 112.309C1108.51 113.479 1112.49 114.739 1117.54 116.099C1124.24 117.949 1129.69 119.789 1133.91 121.629C1138.13 123.479 1141.72 126.319 1144.68 130.149C1147.64 133.989 1149.12 139.099 1149.12 145.499C1149.12 150.649 1147.74 155.499 1144.97 160.059C1142.2 164.619 1138.18 168.279 1132.89 171.049C1127.6 173.819 1121.37 175.199 1114.19 175.199C1107.4 175.199 1101.28 174.009 1095.85 171.629L1095.84 171.639Z" fill="white"/>
<path d="M411.828 208.47C413.768 209.5 415.268 210.94 416.328 212.8C417.388 214.66 417.918 216.8 417.918 219.23C417.918 221.66 417.388 223.77 416.328 225.64C415.268 227.51 413.758 228.96 411.808 229.98C409.858 231.01 407.598 231.52 405.028 231.52H395.818V206.93H405.028C407.618 206.93 409.888 207.44 411.828 208.47ZM409.938 224.48C411.198 223.24 411.828 221.49 411.828 219.23C411.828 216.97 411.198 215.2 409.938 213.94C408.678 212.68 406.918 212.05 404.648 212.05H401.808V226.34H404.648C406.918 226.34 408.678 225.72 409.938 224.48Z" fill="white"/>
<path d="M442.589 231.52L437.469 222.24H436.039V231.52H430.049V206.93H440.099C442.039 206.93 443.689 207.27 445.059 207.95C446.429 208.63 447.449 209.56 448.119 210.73C448.799 211.91 449.139 213.22 449.139 214.67C449.139 216.3 448.679 217.76 447.759 219.05C446.839 220.33 445.479 221.24 443.679 221.78L449.349 231.52H442.589ZM436.039 218H439.749C440.849 218 441.669 217.73 442.219 217.19C442.769 216.65 443.039 215.9 443.039 214.91C443.039 213.92 442.769 213.24 442.219 212.7C441.669 212.16 440.849 211.89 439.749 211.89H436.039V217.99V218Z" fill="white"/>
<path d="M482.729 206.93L474.219 223.39V231.52H468.229V223.39L459.719 206.93H466.519L471.279 217.23L476.009 206.93H482.739H482.729Z" fill="white"/>
<path d="M510.648 212.69C511.698 210.79 513.168 209.3 515.048 208.24C516.928 207.18 519.058 206.65 521.438 206.65C524.358 206.65 526.858 207.42 528.938 208.96C531.018 210.5 532.408 212.6 533.108 215.26H526.528C526.038 214.23 525.338 213.45 524.448 212.91C523.548 212.37 522.528 212.1 521.378 212.1C519.538 212.1 518.038 212.74 516.898 214.03C515.758 215.31 515.178 217.03 515.178 219.18C515.178 221.33 515.748 223.05 516.898 224.33C518.038 225.61 519.538 226.26 521.378 226.26C522.518 226.26 523.548 225.99 524.448 225.45C525.348 224.91 526.038 224.13 526.528 223.1H533.108C532.408 225.76 531.018 227.86 528.938 229.39C526.858 230.92 524.358 231.68 521.438 231.68C519.058 231.68 516.928 231.15 515.048 230.09C513.168 229.03 511.708 227.55 510.648 225.66C509.598 223.77 509.068 221.61 509.068 219.18C509.068 216.75 509.598 214.59 510.648 212.68V212.69Z" fill="white"/>
<path d="M551.529 226.9H559.379V231.52H545.539V206.93H551.529V226.9Z" fill="white"/>
<path d="M576.998 211.73V216.7H585.018V221.32H576.998V226.71H586.068V231.51H571.008V206.92H586.068V211.72H576.998V211.73Z" fill="white"/>
<path d="M614.018 227.17H604.838L603.368 231.51H597.098L605.998 206.92H612.938L621.838 231.51H615.498L614.028 227.17H614.018ZM612.478 222.55L609.428 213.55L606.418 222.55H612.478Z" fill="white"/>
<path d="M655.279 231.52H649.289L639.269 216.35V231.52H633.279V206.93H639.269L649.289 222.17V206.93H655.279V231.52Z" fill="white"/>
<path d="M674.379 206.93V231.52H668.389V206.93H674.379Z" fill="white"/>
<path d="M709.469 231.52H703.479L693.459 216.35V231.52H687.469V206.93H693.459L703.479 222.17V206.93H709.469V231.52Z" fill="white"/>
<path d="M738.899 214.7C738.459 213.88 737.819 213.26 736.989 212.83C736.159 212.4 735.189 212.18 734.069 212.18C732.129 212.18 730.579 212.82 729.409 214.09C728.239 215.36 727.659 217.06 727.659 219.19C727.659 221.46 728.269 223.22 729.499 224.5C730.729 225.77 732.409 226.41 734.559 226.41C736.029 226.41 737.279 226.04 738.289 225.29C739.309 224.55 740.049 223.47 740.509 222.07H732.909V217.65H745.939V223.22C745.499 224.71 744.749 226.1 743.679 227.39C742.619 228.67 741.269 229.71 739.629 230.51C737.999 231.3 736.149 231.7 734.099 231.7C731.669 231.7 729.509 231.17 727.599 230.11C725.689 229.05 724.209 227.57 723.149 225.68C722.089 223.79 721.559 221.63 721.559 219.2C721.559 216.77 722.089 214.61 723.149 212.7C724.209 210.8 725.689 209.31 727.579 208.25C729.469 207.19 731.629 206.66 734.059 206.66C736.999 206.66 739.479 207.37 741.499 208.8C743.519 210.22 744.859 212.2 745.509 214.72H738.889L738.899 214.7Z" fill="white"/>
<path d="M793.019 231.52L790.739 229.31C788.469 231.04 785.759 231.9 782.609 231.9C780.719 231.9 779.069 231.59 777.669 230.97C776.269 230.35 775.189 229.48 774.429 228.34C773.669 227.21 773.289 225.88 773.289 224.36C773.289 222.84 773.709 221.42 774.529 220.18C775.359 218.93 776.599 217.91 778.259 217.11C777.649 216.36 777.219 215.64 776.959 214.95C776.699 214.26 776.579 213.51 776.579 212.69C776.579 211.52 776.879 210.46 777.489 209.5C778.099 208.54 778.979 207.79 780.129 207.24C781.289 206.69 782.659 206.42 784.249 206.42C785.839 206.42 787.229 206.71 788.349 207.29C789.469 207.87 790.309 208.66 790.869 209.64C791.429 210.62 791.689 211.7 791.639 212.86H785.999C786.019 212.23 785.869 211.74 785.529 211.41C785.189 211.07 784.739 210.9 784.179 210.9C783.619 210.9 783.149 211.06 782.779 211.39C782.409 211.72 782.219 212.14 782.219 212.65C782.219 213.16 782.379 213.66 782.689 214.19C782.999 214.73 783.499 215.35 784.179 216.05L790.169 221.9C790.209 221.78 790.279 221.64 790.359 221.48C790.439 221.32 790.529 221.13 790.619 220.92L791.909 218.71H797.899L796.219 221.76C795.589 223.14 794.859 224.45 794.049 225.68L799.969 231.5H792.999L793.019 231.52ZM787.069 225.74L781.599 220.45C779.919 221.32 779.079 222.48 779.079 223.96C779.079 224.85 779.419 225.59 780.109 226.18C780.799 226.77 781.729 227.07 782.899 227.07C784.459 227.07 785.849 226.63 787.069 225.74Z" fill="white"/>
<path d="M833.088 226.9H840.938V231.52H827.098V206.93H833.088V226.9Z" fill="white"/>
<path d="M867.879 227.17H858.699L857.229 231.51H850.959L859.859 206.92H866.799L875.699 231.51H869.359L867.889 227.17H867.879ZM866.339 222.55L863.289 213.55L860.279 222.55H866.339Z" fill="white"/>
<path d="M893.029 206.93V221.64C893.029 223.11 893.389 224.25 894.109 225.04C894.829 225.83 895.899 226.23 897.299 226.23C898.699 226.23 899.769 225.83 900.519 225.04C901.259 224.25 901.639 223.11 901.639 221.64V206.93H907.629V221.61C907.629 223.8 907.159 225.66 906.229 227.18C905.299 228.7 904.039 229.84 902.459 230.61C900.879 231.38 899.129 231.77 897.189 231.77C895.249 231.77 893.519 231.39 891.989 230.63C890.459 229.87 889.249 228.72 888.359 227.2C887.469 225.67 887.029 223.81 887.029 221.61V206.93H893.019H893.029Z" fill="white"/>
<path d="M942.588 231.52H936.598L926.578 216.35V231.52H920.588V206.93H926.578L936.598 222.17V206.93H942.588V231.52Z" fill="white"/>
<path d="M971.698 208.47C973.638 209.5 975.138 210.94 976.198 212.8C977.258 214.66 977.787 216.8 977.787 219.23C977.787 221.66 977.258 223.77 976.198 225.64C975.138 227.51 973.627 228.96 971.677 229.98C969.727 231.01 967.468 231.52 964.898 231.52H955.688V206.93H964.898C967.488 206.93 969.758 207.44 971.698 208.47ZM969.807 224.48C971.067 223.24 971.698 221.49 971.698 219.23C971.698 216.97 971.067 215.2 969.807 213.94C968.547 212.68 966.788 212.05 964.518 212.05H961.677V226.34H964.518C966.788 226.34 968.547 225.72 969.807 224.48Z" fill="white"/>
<path d="M1002.46 231.52L997.338 222.24H995.908V231.52H989.918V206.93H999.968C1001.91 206.93 1003.56 207.27 1004.93 207.95C1006.3 208.63 1007.32 209.56 1007.99 210.73C1008.67 211.91 1009.01 213.22 1009.01 214.67C1009.01 216.3 1008.55 217.76 1007.63 219.05C1006.71 220.33 1005.35 221.24 1003.55 221.78L1009.22 231.52H1002.46ZM995.908 218H999.618C1000.72 218 1001.54 217.73 1002.09 217.19C1002.64 216.65 1002.91 215.9 1002.91 214.91C1002.91 213.92 1002.64 213.24 1002.09 212.7C1001.54 212.16 1000.72 211.89 999.618 211.89H995.908V217.99V218Z" fill="white"/>
<path d="M1042.6 206.93L1034.09 223.39V231.52H1028.1V223.39L1019.59 206.93H1026.39L1031.15 217.23L1035.88 206.93H1042.61H1042.6Z" fill="white"/>
<path d="M1149.12 217.77H1064.77V220.56H1149.12V217.77Z" fill="white"/>
<path d="M374.768 217.77H290.418V220.56H374.768V217.77Z" fill="white"/>
</svg>
