<svg xmlns="http://www.w3.org/2000/svg" xmlns:xlink="http://www.w3.org/1999/xlink" width="100" height="100" viewBox="0 0 100 100">
  <defs>
    <filter id="Icon_zocial-email" x="17.629" y="28.225" width="64.743" height="49.553" filterUnits="userSpaceOnUse">
      <feOffset dy="3" input="SourceAlpha"/>
      <feGaussianBlur stdDeviation="3" result="blur"/>
      <feFlood flood-opacity="0.161"/>
      <feComposite operator="in" in2="blur"/>
      <feComposite in="SourceGraphic"/>
    </filter>
  </defs>
  <g id="Group_7293" data-name="Group 7293" transform="translate(-351 -2466)">
    <path id="Path_95579" data-name="Path 95579" d="M50,0A50,50,0,1,1,0,50,50,50,0,0,1,50,0Z" transform="translate(351 2466)" fill="#ffffff"/>
    <g transform="matrix(1, 0, 0, 1, 351, 2466)" filter="url(#Icon_zocial-email)">
      <path id="Icon_zocial-email-2" data-name="Icon zocial-email" d="M.072,32.826V6.863q0-.045.135-.856L15.488,19.078.252,33.728a3.82,3.82,0,0,1-.18-.9ZM2.1,4.2a1.943,1.943,0,0,1,.766-.135H44.02a2.552,2.552,0,0,1,.811.135L29.506,17.32l-2.028,1.623-4.012,3.29-4.012-3.29L17.426,17.32Zm.045,31.282,15.371-14.74,5.95,4.823,5.95-4.823,15.371,14.74a2.164,2.164,0,0,1-.766.135H2.867a2.042,2.042,0,0,1-.721-.135Zm29.3-16.407L46.68,6.006a2.69,2.69,0,0,1,.135.856V32.826a3.455,3.455,0,0,1-.135.9Z" transform="translate(26.56 30.16)" fill="#14315D"/>
    </g>
  </g>
</svg>
