<svg id="Group_7304" data-name="Group 7304" xmlns="http://www.w3.org/2000/svg" xmlns:xlink="http://www.w3.org/1999/xlink" width="31.225" height="33.9" viewBox="0 0 31.225 33.9">
  <defs>
    <filter id="Icon_awesome-instagram" x="0.323" y="3.325" width="30.578" height="30.575" filterUnits="userSpaceOnUse">
      <feOffset dy="3" input="SourceAlpha"/>
      <feGaussianBlur stdDeviation="3" result="blur"/>
      <feFlood flood-opacity="0.161"/>
      <feComposite operator="in" in2="blur"/>
      <feComposite in="SourceGraphic"/>
    </filter>
  </defs>
  <path id="Path_95580" data-name="Path 95580" d="M15.612,0A15.612,15.612,0,1,1,0,15.612,15.612,15.612,0,0,1,15.612,0Z" transform="translate(0 0)" fill="#078b8a"/>
  <g transform="matrix(1, 0, 0, 1, 0, 0)" filter="url(#Icon_awesome-instagram)">
    <path id="Icon_awesome-instagram-2" data-name="Icon awesome-instagram" d="M6.285,5.3A3.224,3.224,0,1,0,9.509,8.525,3.219,3.219,0,0,0,6.285,5.3Zm0,5.32a2.1,2.1,0,1,1,2.1-2.1A2.1,2.1,0,0,1,6.285,10.621Zm4.108-5.452a.752.752,0,1,1-.752-.752A.75.75,0,0,1,10.393,5.169Zm2.135.763A3.721,3.721,0,0,0,11.512,3.3,3.746,3.746,0,0,0,8.878,2.282c-1.038-.059-4.15-.059-5.188,0A3.741,3.741,0,0,0,1.055,3.295,3.734,3.734,0,0,0,.039,5.93c-.059,1.038-.059,4.15,0,5.188a3.721,3.721,0,0,0,1.016,2.635,3.751,3.751,0,0,0,2.635,1.016c1.038.059,4.15.059,5.188,0a3.721,3.721,0,0,0,2.635-1.016,3.746,3.746,0,0,0,1.016-2.635c.059-1.038.059-4.147,0-5.185Zm-1.341,6.3a2.122,2.122,0,0,1-1.2,1.2,13.859,13.859,0,0,1-3.707.253,13.967,13.967,0,0,1-3.707-.253,2.122,2.122,0,0,1-1.2-1.2A13.859,13.859,0,0,1,1.13,8.525a13.967,13.967,0,0,1,.253-3.707,2.122,2.122,0,0,1,1.2-1.2,13.859,13.859,0,0,1,3.707-.253,13.967,13.967,0,0,1,3.707.253,2.122,2.122,0,0,1,1.2,1.2,13.859,13.859,0,0,1,.253,3.707A13.85,13.85,0,0,1,11.187,12.232Z" transform="translate(9.33 7.09)" fill="#fff"/>
  </g>
</svg>
