<?xml version="1.0" encoding="UTF-8"?>
<svg id="Layer_2" data-name="Layer 2" xmlns="http://www.w3.org/2000/svg" viewBox="0 0 1149.11 262.32">
  <defs>
    <style>
      .cls-1 {
        fill: #061d49;
      }

      .cls-2 {
        fill: #ffbe3e;
      }
    </style>
  </defs>
  <g id="Layer_1-2" data-name="Layer 1">
    <g>
      <g>
        <path class="cls-2" d="m63.57,26.69c-5.53,0-10.54,2.24-14.16,5.87-3.64,3.64-5.89,8.65-5.89,14.18,0-11.06-8.96-20.05-20.05-20.05,5.55,0,10.57-2.24,14.18-5.87,3.64-3.64,5.87-8.65,5.87-14.18,0,5.53,2.26,10.54,5.89,14.18,3.61,3.64,8.62,5.87,14.16,5.87Z"/>
        <g>
          <path class="cls-2" d="m43.98,195.4c-1.62-1.21-3.19-2.42-4.75-3.69-1.18-.97-2.3-1.95-3.43-2.98-8.21-7.38-15.27-16.04-20.94-25.61-2.01-3.49-3.84-7.06-5.49-10.75-4.46-9.95-7.44-20.7-8.68-31.96-.44-3.96-.68-7.97-.68-12.05v-.38c.03-11.43,1.86-22.42,5.17-32.75,1.24-3.84,2.69-7.62,4.37-11.25,4.08-9.1,9.42-17.57,15.77-25.13,3.01,1.83,5.46,4.55,6.97,7.74-5.32,6.56-9.83,13.82-13.32,21.62-1.51,3.31-2.81,6.7-3.93,10.19-3.01,9.33-4.67,19.26-4.7,29.56v.41c0,3.69.21,7.32.62,10.93,1.12,10.16,3.81,19.85,7.86,28.85,1.48,3.37,3.13,6.59,4.99,9.72,4.55,7.74,10.13,14.8,16.54,21,.8.77,1.59,1.51,2.39,2.19.97.92,1.98,1.77,3.01,2.63-2.04,3.46-2.63,7.77-1.77,11.73Z"/>
          <path class="cls-2" d="m216.69,108.36c0,3.63-.18,7.27-.56,10.81-.38,4.05-1,8.03-1.86,11.93-1.06,5.02-2.48,9.89-4.22,14.62-1.86,5.05-4.1,9.92-6.65,14.59-.15-.5-.27-1-.44-1.51-.09-.32-.18-.62-.3-.95-.18-.59-.38-1.21-.59-1.83-.12-.3-.24-.59-.35-.89-.97-2.63-2.16-5.17-3.54-7.59,1.86-4.34,3.46-8.77,4.7-13.41.47-1.71.92-3.46,1.27-5.2.8-3.54,1.36-7.15,1.71-10.81.32-3.22.5-6.47.5-9.78,0-6.94-.71-13.7-2.1-20.2-.74-3.6-1.71-7.12-2.84-10.54-3.19-9.66-7.86-18.64-13.7-26.7-2.16-2.95-4.46-5.79-6.91-8.51-6.76-7.41-14.62-13.79-23.33-18.84-3.13-1.83-6.41-3.49-9.75-4.96-9.04-3.99-18.75-6.65-28.94-7.71-3.43-.38-6.91-.56-10.46-.56h-.5c-10.31.06-20.23,1.71-29.56,4.76-2.1.65-4.13,1.42-6.17,2.22-.27-.03-.5-.03-.74-.03-1.48,0-2.92-.18-4.31-.53-3.16-.74-6.05-2.33-8.45-4.64,1.71-.89,3.46-1.74,5.23-2.51,3.66-1.68,7.41-3.13,11.28-4.37C85.41,1.89,96.4.06,107.83,0h.5c3.9,0,7.74.21,11.55.62,11.28,1.18,22.03,4.13,32.01,8.54,3.72,1.62,7.29,3.46,10.78,5.49,9.63,5.58,18.31,12.64,25.78,20.82,2.72,2.98,5.26,6.11,7.62,9.39,6.47,8.92,11.61,18.84,15.15,29.5,1.27,3.81,2.33,7.71,3.16,11.7,1.51,7.21,2.3,14.65,2.3,22.3Z"/>
          <path class="cls-1" d="m216.58,174.3v82.33h-11.37v-82.33c0-14.17-5.44-27.58-15.3-37.76l-17.72-18.28-29.41-30.34,8.16-7.92.38.39,46.75,48.23c11.94,12.32,18.51,28.53,18.51,45.68Z"/>
          <path class="cls-1" d="m172.19,118.26c-5.64-13.44-12.61-26.14-20.85-37.86-3.07-4.34-6.32-8.56-9.72-12.61-7.32-8.77-15.42-16.69-24.01-23.6l-3.57-2.89-3.54,2.89c-38.78,31.22-64,80.3-70.14,134.68-.5,4.25-.86,8.54-1.09,12.85-.27,4.34-.38,8.68-.38,13.08,0,15.62,1.57,31.13,4.67,46.16.47,2.36.97,4.7,1.54,7l1.03,4.37h135.86l1.03-4.37c.56-2.33,1.09-4.67,1.57-7,3.07-15.03,4.64-30.54,4.64-46.16,0-30.57-5.88-60.01-17.01-86.53ZM55.14,250.95c-3.25-15-4.9-30.51-4.9-46.16,0-1.68.03-3.34.06-5.02.03-.77.06-1.51.09-2.27.09-3.1.27-6.2.5-9.27,3.96-52.93,26.88-101.18,63.14-132.25,6.7,5.76,13.02,12.14,18.87,19.11,28.97,34.53,44.92,80.6,44.92,129.71,0,15.65-1.65,31.16-4.9,46.16H55.14Z"/>
          <g>
            <path class="cls-1" d="m97.58,115.97c-.83-.44-1.72-.61-2.6-.61-2.05,0-4.04,1.13-5.06,3.08-1.4,2.82-.3,6.24,2.53,7.66.83.41,1.7.63,2.53.63,2.09,0,4.1-1.16,5.1-3.12.42-.83.63-1.72.63-2.57,0-2.07-1.14-4.06-3.12-5.08Zm-13.59,32.03c-.5-.17-1.02-.22-1.53-.22-2.49,0-4.76,1.64-5.47,4.15-.83,3.03.94,6.17,3.97,7,.52.15,1.02.2,1.53.2,1.24,0,2.44-.41,3.4-1.14.98-.72,1.72-1.75,2.05-3.01.17-.52.2-1.03.2-1.53,0-2.49-1.62-4.76-4.15-5.45Zm-7.18,33.99h-.5c-2.92,0-5.41,2.22-5.67,5.19-.26,3.12,2.05,5.87,5.17,6.13.18.04.35.04.52.04,1.46,0,2.79-.55,3.82-1.48,1.02-.94,1.7-2.23,1.83-3.71.02-.17.02-.31.02-.48,0-2.92-2.23-5.43-5.19-5.69Z"/>
            <path class="cls-1" d="m114.02,97.65c-1.5,0-2.96-.6-4.02-1.65-.26-.27-.5-.56-.7-.87-.21-.31-.38-.64-.53-.98s-.25-.7-.32-1.06c-.07-.36-.11-.74-.11-1.11s.04-.74.11-1.12c.07-.36.18-.72.32-1.06s.32-.67.53-.98c.21-.31.44-.6.7-.86,1.32-1.32,3.29-1.93,5.14-1.56.36.07.71.19,1.06.33.34.13.67.32.97.52.32.21.61.44.87.71,1.05,1.05,1.66,2.52,1.66,4.02,0,.36-.03.74-.11,1.11-.07.36-.18.72-.32,1.06-.14.34-.32.67-.53.98-.21.31-.44.6-.7.87-.26.26-.55.5-.87.7-.3.21-.63.38-.97.52-.35.14-.7.26-1.06.33-.37.07-.74.1-1.12.1Z"/>
            <path class="cls-1" d="m157.43,187.16c-.25-2.96-2.71-5.19-5.63-5.19-.17,0-.34,0-.51.01-3.13.26-5.45,3.02-5.17,6.14h0c.13,1.49.82,2.8,1.84,3.7,1.02.95,2.36,1.49,3.82,1.49.16,0,.34,0,.51-.01,2.94-.25,5.17-2.71,5.17-5.63,0-.17,0-.34-.03-.51Zm-6.31-35.26c-.69-2.52-3-4.15-5.5-4.15-.48,0-.99.07-1.5.2-3.03.83-4.78,3.98-3.95,6.98.34,1.27,1.09,2.32,2.06,3.03.99.73,2.17,1.15,3.43,1.15.48,0,1.02-.06,1.5-.2,2.54-.7,4.18-2.99,4.18-5.51,0-.48-.07-.99-.22-1.5Zm-12.97-33.47c-1.02-1.97-3-3.1-5.07-3.1-.87,0-1.73.2-2.57.63-2.8,1.43-3.92,4.85-2.48,7.65.99,1.97,3,3.09,5.06,3.09.87,0,1.76-.19,2.57-.61,1.98-1.01,3.12-2.99,3.12-5.07,0-.86-.2-1.75-.63-2.58Z"/>
          </g>
        </g>
        <rect class="cls-1" x="18.38" y="250.95" width="220.28" height="11.37"/>
      </g>
      <g>
        <g>
          <path class="cls-1" d="m306.77,171.64c-5.43-2.38-9.7-5.75-12.81-10.12-3.11-4.37-4.66-9.46-4.66-15.29h17.76c.39,4.37,2.11,7.96,5.17,10.77,3.06,2.82,7.35,4.22,12.88,4.22s10.19-1.38,13.39-4.15c3.2-2.76,4.8-6.33,4.8-10.7,0-3.39-1-6.16-2.99-8.3-1.99-2.13-4.46-3.78-7.42-4.95-2.96-1.16-7.06-2.42-12.3-3.78-6.6-1.75-11.96-3.52-16.08-5.31-4.13-1.79-7.64-4.58-10.55-8.37-2.91-3.78-4.37-8.83-4.37-15.14,0-5.82,1.45-10.92,4.37-15.29,2.91-4.37,6.99-7.71,12.23-10.04,5.24-2.33,11.3-3.49,18.19-3.49,9.8,0,17.83,2.45,24.09,7.35,6.26,4.9,9.73,11.62,10.41,20.16h-18.34c-.29-3.69-2.04-6.84-5.24-9.46-3.2-2.62-7.42-3.93-12.66-3.93-4.76,0-8.64,1.22-11.65,3.64-3.01,2.43-4.51,5.92-4.51,10.48,0,3.11.95,5.65,2.84,7.64,1.89,1.99,4.3,3.57,7.21,4.73,2.91,1.17,6.89,2.43,11.94,3.79,6.7,1.85,12.15,3.69,16.37,5.53,4.22,1.85,7.81,4.69,10.77,8.52,2.96,3.84,4.44,8.95,4.44,15.35,0,5.15-1.38,10-4.15,14.56-2.77,4.56-6.79,8.22-12.08,10.99-5.29,2.77-11.52,4.15-18.7,4.15-6.79,0-12.91-1.19-18.34-3.57Z"/>
          <path class="cls-1" d="m477.08,153.52h-42.36l-7.28,20.67h-17.32l36.24-101.31h19.21l36.24,101.31h-17.47l-7.28-20.67Zm-4.66-13.54l-16.45-47.02-16.59,47.02h33.04Z"/>
          <path class="cls-1" d="m641.12,73.02l-37.99,101.16h-19.22l-38.14-101.16h17.76l29.98,84.13,30.13-84.13h17.47Z"/>
          <path class="cls-1" d="m707.93,73.02v101.16h-16.59v-101.16h16.59Z"/>
          <path class="cls-1" d="m782.75,160.8h34.21v13.39h-50.8v-101.16h16.59v87.77Z"/>
          <path class="cls-1" d="m883.76,160.8h34.21v13.39h-50.8v-101.16h16.59v87.77Z"/>
          <path class="cls-1" d="m984.78,86.41v29.69h34.94v13.54h-34.94v31.01h39.3v13.54h-55.9v-101.31h55.9v13.54h-39.3Z"/>
          <path class="cls-1" d="m1095.84,171.64c-5.43-2.38-9.7-5.75-12.81-10.12-3.11-4.37-4.66-9.46-4.66-15.29h17.76c.39,4.37,2.11,7.96,5.17,10.77,3.06,2.82,7.35,4.22,12.88,4.22s10.19-1.38,13.39-4.15c3.2-2.76,4.8-6.33,4.8-10.7,0-3.39-1-6.16-2.99-8.3-1.99-2.13-4.46-3.78-7.42-4.95-2.96-1.16-7.06-2.42-12.3-3.78-6.6-1.75-11.96-3.52-16.08-5.31-4.13-1.79-7.64-4.58-10.55-8.37-2.91-3.78-4.37-8.83-4.37-15.14,0-5.82,1.45-10.92,4.37-15.29,2.91-4.37,6.99-7.71,12.23-10.04,5.24-2.33,11.3-3.49,18.19-3.49,9.8,0,17.83,2.45,24.09,7.35,6.26,4.9,9.73,11.62,10.41,20.16h-18.34c-.29-3.69-2.04-6.84-5.24-9.46-3.2-2.62-7.42-3.93-12.66-3.93-4.76,0-8.64,1.22-11.65,3.64-3.01,2.43-4.51,5.92-4.51,10.48,0,3.11.95,5.65,2.84,7.64,1.89,1.99,4.3,3.57,7.21,4.73,2.91,1.17,6.89,2.43,11.94,3.79,6.7,1.85,12.15,3.69,16.37,5.53,4.22,1.85,7.81,4.69,10.77,8.52,2.96,3.84,4.44,8.95,4.44,15.35,0,5.15-1.38,10-4.15,14.56-2.77,4.56-6.79,8.22-12.08,10.99-5.29,2.77-11.52,4.15-18.7,4.15-6.79,0-12.91-1.19-18.34-3.57Z"/>
        </g>
        <g>
          <path class="cls-1" d="m411.83,208.47c1.94,1.03,3.44,2.47,4.5,4.33,1.06,1.86,1.59,4,1.59,6.43s-.53,4.54-1.59,6.41c-1.06,1.87-2.57,3.32-4.52,4.34-1.95,1.03-4.21,1.54-6.78,1.54h-9.21v-24.59h9.21c2.59,0,4.86.51,6.8,1.54Zm-1.89,16.01c1.26-1.24,1.89-2.99,1.89-5.25s-.63-4.03-1.89-5.29c-1.26-1.26-3.02-1.89-5.29-1.89h-2.84v14.29h2.84c2.27,0,4.03-.62,5.29-1.86Z"/>
          <path class="cls-1" d="m442.59,231.52l-5.12-9.28h-1.43v9.28h-5.99v-24.59h10.05c1.94,0,3.59.34,4.96,1.02,1.37.68,2.39,1.61,3.06,2.78.68,1.18,1.02,2.49,1.02,3.94,0,1.63-.46,3.09-1.38,4.38-.92,1.28-2.28,2.19-4.08,2.73l5.67,9.74h-6.76Zm-6.55-13.52h3.71c1.1,0,1.92-.27,2.47-.81.55-.54.82-1.29.82-2.28s-.27-1.67-.82-2.21c-.55-.54-1.37-.81-2.47-.81h-3.71v6.1Z"/>
          <path class="cls-1" d="m482.73,206.93l-8.51,16.46v8.13h-5.99v-8.13l-8.51-16.46h6.8l4.76,10.3,4.73-10.3h6.73Z"/>
          <path class="cls-1" d="m510.65,212.69c1.05-1.9,2.52-3.39,4.4-4.45s4.01-1.59,6.39-1.59c2.92,0,5.42.77,7.5,2.31,2.08,1.54,3.47,3.64,4.17,6.3h-6.58c-.49-1.03-1.19-1.81-2.08-2.35-.9-.54-1.92-.81-3.07-.81-1.84,0-3.34.64-4.48,1.93-1.14,1.28-1.72,3-1.72,5.15s.57,3.87,1.72,5.15c1.14,1.28,2.64,1.93,4.48,1.93,1.14,0,2.17-.27,3.07-.81.9-.54,1.59-1.32,2.08-2.35h6.58c-.7,2.66-2.09,4.76-4.17,6.29-2.08,1.53-4.58,2.29-7.5,2.29-2.38,0-4.51-.53-6.39-1.59-1.88-1.06-3.34-2.54-4.4-4.43-1.05-1.89-1.58-4.05-1.58-6.48s.53-4.59,1.58-6.5Z"/>
          <path class="cls-1" d="m551.53,226.9h7.85v4.62h-13.84v-24.59h5.99v19.97Z"/>
          <path class="cls-1" d="m577,211.73v4.97h8.02v4.62h-8.02v5.39h9.07v4.8h-15.06v-24.59h15.06v4.8h-9.07Z"/>
          <path class="cls-1" d="m614.02,227.17h-9.18l-1.47,4.34h-6.27l8.9-24.59h6.94l8.9,24.59h-6.34l-1.47-4.34Zm-1.54-4.62l-3.05-9-3.01,9h6.06Z"/>
          <path class="cls-1" d="m655.28,231.52h-5.99l-10.02-15.17v15.17h-5.99v-24.59h5.99l10.02,15.24v-15.24h5.99v24.59Z"/>
          <path class="cls-1" d="m674.38,206.93v24.59h-5.99v-24.59h5.99Z"/>
          <path class="cls-1" d="m709.47,231.52h-5.99l-10.02-15.17v15.17h-5.99v-24.59h5.99l10.02,15.24v-15.24h5.99v24.59Z"/>
          <path class="cls-1" d="m738.9,214.7c-.44-.82-1.08-1.44-1.91-1.87-.83-.43-1.8-.65-2.92-.65-1.94,0-3.49.64-4.66,1.91-1.17,1.27-1.75,2.97-1.75,5.1,0,2.27.61,4.03,1.84,5.31,1.23,1.27,2.91,1.91,5.06,1.91,1.47,0,2.72-.37,3.73-1.12,1.02-.74,1.76-1.82,2.22-3.22h-7.6v-4.42h13.03v5.57c-.44,1.49-1.19,2.88-2.26,4.17-1.06,1.28-2.41,2.32-4.05,3.12-1.63.79-3.48,1.19-5.53,1.19-2.43,0-4.59-.53-6.5-1.59-1.91-1.06-3.39-2.54-4.45-4.43-1.06-1.89-1.59-4.05-1.59-6.48s.53-4.59,1.59-6.5c1.06-1.9,2.54-3.39,4.43-4.45,1.89-1.06,4.05-1.59,6.48-1.59,2.94,0,5.42.71,7.44,2.14,2.02,1.42,3.36,3.4,4.01,5.92h-6.62Z"/>
          <path class="cls-1" d="m793.02,231.52l-2.28-2.21c-2.27,1.73-4.98,2.59-8.13,2.59-1.89,0-3.54-.31-4.94-.93-1.4-.62-2.48-1.49-3.24-2.63-.76-1.13-1.14-2.46-1.14-3.98s.42-2.94,1.24-4.18c.83-1.25,2.07-2.27,3.73-3.07-.61-.75-1.04-1.47-1.3-2.16-.26-.69-.38-1.44-.38-2.26,0-1.17.3-2.23.91-3.19.61-.96,1.49-1.71,2.64-2.26,1.16-.55,2.53-.82,4.12-.82s2.98.29,4.1.87c1.12.58,1.96,1.37,2.52,2.35.56.98.82,2.06.77,3.22h-5.64c.02-.63-.13-1.12-.47-1.45-.34-.34-.79-.51-1.35-.51s-1.03.16-1.4.49c-.37.33-.56.75-.56,1.26s.16,1.01.47,1.54c.31.54.81,1.16,1.49,1.86l5.99,5.85c.04-.12.11-.26.19-.42s.17-.35.26-.56l1.29-2.21h5.99l-1.68,3.05c-.63,1.38-1.36,2.69-2.17,3.92l5.92,5.82h-6.97Zm-5.95-5.78l-5.47-5.29c-1.68.87-2.52,2.03-2.52,3.51,0,.89.34,1.63,1.03,2.22.69.59,1.62.89,2.79.89,1.56,0,2.95-.44,4.17-1.33Z"/>
          <path class="cls-1" d="m833.09,226.9h7.85v4.62h-13.84v-24.59h5.99v19.97Z"/>
          <path class="cls-1" d="m867.88,227.17h-9.18l-1.47,4.34h-6.27l8.9-24.59h6.94l8.9,24.59h-6.34l-1.47-4.34Zm-1.54-4.62l-3.05-9-3.01,9h6.06Z"/>
          <path class="cls-1" d="m893.03,206.93v14.71c0,1.47.36,2.61,1.08,3.4.72.79,1.79,1.19,3.19,1.19s2.47-.4,3.22-1.19c.74-.79,1.12-1.93,1.12-3.4v-14.71h5.99v14.68c0,2.19-.47,4.05-1.4,5.57-.93,1.52-2.19,2.66-3.77,3.43-1.58.77-3.33,1.16-5.27,1.16s-3.67-.38-5.2-1.14c-1.53-.76-2.74-1.91-3.63-3.43-.89-1.53-1.33-3.39-1.33-5.59v-14.68h5.99Z"/>
          <path class="cls-1" d="m942.59,231.52h-5.99l-10.02-15.17v15.17h-5.99v-24.59h5.99l10.02,15.24v-15.24h5.99v24.59Z"/>
          <path class="cls-1" d="m971.7,208.47c1.94,1.03,3.44,2.47,4.5,4.33,1.06,1.86,1.59,4,1.59,6.43s-.53,4.54-1.59,6.41c-1.06,1.87-2.57,3.32-4.52,4.34-1.95,1.03-4.21,1.54-6.78,1.54h-9.21v-24.59h9.21c2.59,0,4.86.51,6.8,1.54Zm-1.89,16.01c1.26-1.24,1.89-2.99,1.89-5.25s-.63-4.03-1.89-5.29c-1.26-1.26-3.02-1.89-5.29-1.89h-2.84v14.29h2.84c2.27,0,4.03-.62,5.29-1.86Z"/>
          <path class="cls-1" d="m1002.46,231.52l-5.12-9.28h-1.43v9.28h-5.99v-24.59h10.05c1.94,0,3.59.34,4.96,1.02,1.37.68,2.39,1.61,3.06,2.78.68,1.18,1.02,2.49,1.02,3.94,0,1.63-.46,3.09-1.38,4.38-.92,1.28-2.28,2.19-4.08,2.73l5.67,9.74h-6.76Zm-6.55-13.52h3.71c1.1,0,1.92-.27,2.47-.81.55-.54.82-1.29.82-2.28s-.27-1.67-.82-2.21c-.55-.54-1.37-.81-2.47-.81h-3.71v6.1Z"/>
          <path class="cls-1" d="m1042.6,206.93l-8.51,16.46v8.13h-5.99v-8.13l-8.51-16.46h6.8l4.76,10.3,4.73-10.3h6.73Z"/>
        </g>
        <rect class="cls-1" x="1064.77" y="217.77" width="84.35" height="2.79"/>
        <rect class="cls-1" x="290.42" y="217.77" width="84.35" height="2.79"/>
      </g>
    </g>
  </g>
</svg>