<svg xmlns="http://www.w3.org/2000/svg" width="200.161" height="200.226" viewBox="0 0 554.161 376.226">
  <g id="Group_1" data-name="Group 1" transform="translate(-435.939 138.946)">
    <g id="Group_7147" data-name="Group 7147" transform="translate(436.689 112.046)">
      <g id="Group_7145" data-name="Group 7145" transform="translate(1.387)">
        <path id="Path_95450" data-name="Path 95450" d="M223.523,1305.491c-9.816,0-16.183,4.068-16.183,10.524,0,18.835,36.345,9.107,36.168,31.922,0,9.551-8.577,15.74-21.488,15.74A32.578,32.578,0,0,1,200,1354.746l1.945-3.272a29.124,29.124,0,0,0,20.162,8.4c10.611,0,17.421-4.6,17.421-11.851.177-19.366-36.168-9.461-36.168-31.745,0-8.931,8.136-14.679,20.339-14.679a34.225,34.225,0,0,1,17.686,5.04l-1.681,3.36a31.065,31.065,0,0,0-16.183-4.509" transform="translate(-200.001 -1301.6)" fill="#000" stroke="#000" stroke-width="1"/>
        <path id="Path_95451" data-name="Path 95451" d="M627.339,1346.565H591.171l-7.959,17.6h-4.068l28.032-61.814h3.98l28.3,61.814h-4.068Zm-1.68-3.714-16.536-36.257-16.36,36.257Z" transform="translate(-505.841 -1302.349)" fill="#000" stroke="#000" stroke-width="1"/>
        <path id="Path_95452" data-name="Path 95452" d="M998.482,1302.349l23.435,57.391,23.523-57.391h4.068l-25.645,61.813h-3.892l-25.645-61.813Z" transform="translate(-839.229 -1302.348)" fill="#000" stroke="#000" stroke-width="1"/>
        <rect id="Rectangle_26" data-name="Rectangle 26" width="3.714" height="61.813" transform="translate(245.378)" fill="#000" stroke="#000" stroke-width="1"/>
        <path id="Path_95453" data-name="Path 95453" d="M1724.036,1302.349v58.187h27.5v3.626h-31.215v-61.813Z" transform="translate(-1426.226 -1302.348)" fill="#000" stroke="#000" stroke-width="1"/>
        <path id="Path_95454" data-name="Path 95454" d="M2081.024,1302.349v58.187h27.5v3.626h-31.217v-61.813Z" transform="translate(-1715.131 -1302.348)" fill="#000" stroke="#000" stroke-width="1"/>
        <path id="Path_95455" data-name="Path 95455" d="M2474.183,1302.349v3.626h-36.17v24.671h32.19v3.715h-32.19v26.175h37.318v3.626H2434.3v-61.813Z" transform="translate(-2004.035 -1302.348)" fill="#000" stroke="#000" stroke-width="1"/>
        <path id="Path_95456" data-name="Path 95456" d="M2838.839,1305.491c-9.815,0-16.183,4.068-16.183,10.524,0,18.835,36.344,9.107,36.166,31.922,0,9.551-8.574,15.74-21.486,15.74a32.583,32.583,0,0,1-22.019-8.932l1.945-3.272a29.127,29.127,0,0,0,20.163,8.4c10.609,0,17.42-4.6,17.42-11.851.176-19.366-36.169-9.461-36.169-31.745,0-8.931,8.136-14.679,20.341-14.679a34.214,34.214,0,0,1,17.684,5.04l-1.681,3.36a31.059,31.059,0,0,0-16.181-4.509" transform="translate(-2311.308 -1301.6)" fill="#000" stroke="#000" stroke-width="1"/>
      </g>
      <g id="Group_7146" data-name="Group 7146" transform="translate(1.659 106.773)">
        <path id="Path_95457" data-name="Path 95457" d="M201.154,1769.526h5.705a10.159,10.159,0,0,1,3.685.647,8.744,8.744,0,0,1,2.89,1.8,8.018,8.018,0,0,1,1.873,2.706,8.511,8.511,0,0,1,.661,3.366v.05a8.608,8.608,0,0,1-.661,3.381,8.011,8.011,0,0,1-1.873,2.718,8.883,8.883,0,0,1-2.89,1.811,9.943,9.943,0,0,1-3.685.662h-5.705Zm5.705,15.988a8.653,8.653,0,0,0,3.233-.576,7.268,7.268,0,0,0,2.449-1.572,7.012,7.012,0,0,0,1.555-2.334,7.522,7.522,0,0,0,.551-2.887v-.049a7.554,7.554,0,0,0-.551-2.875,7.127,7.127,0,0,0-1.555-2.358,7.324,7.324,0,0,0-2.449-1.6,8.5,8.5,0,0,0-3.233-.59h-4.431v14.838Z" transform="translate(-201.154 -1769.526)" fill="#000" stroke="#000" stroke-width="1"/>
        <path id="Path_95458" data-name="Path 95458" d="M344.8,1769.524H352a8.079,8.079,0,0,1,2.816.453,5.492,5.492,0,0,1,2.008,1.238,4.412,4.412,0,0,1,.955,1.431,4.5,4.5,0,0,1,.343,1.752v.047a4.647,4.647,0,0,1-.379,1.923,4.365,4.365,0,0,1-1.053,1.458,5.4,5.4,0,0,1-1.592.991,8.071,8.071,0,0,1-2,.526l5.656,7.321h-1.616l-5.46-7.1h-5.608v7.1H344.8Zm7.053,8.888a7.045,7.045,0,0,0,2-.27,4.781,4.781,0,0,0,1.58-.774,3.664,3.664,0,0,0,1.041-1.228,3.529,3.529,0,0,0,.379-1.659v-.049a3.307,3.307,0,0,0-1.285-2.751,5.779,5.779,0,0,0-3.637-1.008h-5.852v7.737Z" transform="translate(-318.195 -1769.524)" fill="#000" stroke="#000" stroke-width="1"/>
        <path id="Path_95459" data-name="Path 95459" d="M482.179,1779.882l-7.346-10.357h1.592l6.415,9.207,6.44-9.207H490.8l-7.346,10.335v6.806h-1.273Z" transform="translate(-425.348 -1769.524)" fill="#000" stroke="#000" stroke-width="1"/>
        <path id="Path_95460" data-name="Path 95460" d="M717.95,1786.006a8.378,8.378,0,0,1-6.109-2.559,8.513,8.513,0,0,1-1.775-2.8,9.322,9.322,0,0,1-.637-3.452v-.049a9.093,9.093,0,0,1,.649-3.428,8.98,8.98,0,0,1,1.787-2.83,8.289,8.289,0,0,1,6.134-2.608,10.11,10.11,0,0,1,2.081.2,8.257,8.257,0,0,1,1.726.563,9.162,9.162,0,0,1,1.495.871,14.4,14.4,0,0,1,1.358,1.114l-.906.93a13.881,13.881,0,0,0-1.175-1,7.368,7.368,0,0,0-1.31-.8,7.757,7.757,0,0,0-1.518-.526,7.6,7.6,0,0,0-1.776-.2,6.937,6.937,0,0,0-5.154,2.215,7.693,7.693,0,0,0-1.518,2.437,8.133,8.133,0,0,0-.552,3.011v.05a8.045,8.045,0,0,0,.564,3.024,7.815,7.815,0,0,0,1.53,2.45,7.115,7.115,0,0,0,2.29,1.64,6.841,6.841,0,0,0,2.865.6,7.151,7.151,0,0,0,3.233-.685,10.38,10.38,0,0,0,2.668-1.983l.858.833a16.216,16.216,0,0,1-1.408,1.213,8.8,8.8,0,0,1-1.543.942,8.577,8.577,0,0,1-1.775.61,9.187,9.187,0,0,1-2.081.222" transform="translate(-613.713 -1768.276)" fill="#000" stroke="#000" stroke-width="1"/>
        <path id="Path_95461" data-name="Path 95461" d="M851.725,1769.524H853v15.991h10.065v1.149H851.725Z" transform="translate(-726.43 -1769.524)" fill="#000" stroke="#000" stroke-width="1"/>
        <path id="Path_95462" data-name="Path 95462" d="M978.427,1769.524h12.194v1.151H979.7v6.784h9.819v1.151H979.7v6.906h11.043v1.149H978.427Z" transform="translate(-827.544 -1769.524)" fill="#000" stroke="#000" stroke-width="1"/>
        <path id="Path_95463" data-name="Path 95463" d="M1112.181,1769h1.224l7.983,17.264h-1.4l-2.18-4.8H1107.7l-2.18,4.8H1104.2Zm5.094,11.314-4.505-9.918-4.531,9.918Z" transform="translate(-926.748 -1769.004)" fill="#000" stroke="#000" stroke-width="1"/>
        <path id="Path_95464" data-name="Path 95464" d="M1254.914,1769.524h1.2l11.828,14.913v-14.913h1.224v17.14h-.955l-12.072-15.229v15.229h-1.225Z" transform="translate(-1046.023 -1769.524)" fill="#000" stroke="#000" stroke-width="1"/>
        <rect id="Rectangle_27" data-name="Rectangle 27" width="1.273" height="17.141" transform="translate(237.392 0.001)" fill="#000" stroke="#000" stroke-width="1"/>
        <path id="Path_95465" data-name="Path 95465" d="M1490.238,1769.524h1.2l11.828,14.913v-14.913h1.225v17.14h-.955l-12.072-15.229v15.229h-1.224Z" transform="translate(-1237.322 -1769.524)" fill="#000" stroke="#000" stroke-width="1"/>
        <path id="Path_95466" data-name="Path 95466" d="M1640.114,1786.006a9.009,9.009,0,0,1-3.638-.7,7.885,7.885,0,0,1-2.7-1.9,8.352,8.352,0,0,1-1.69-2.8,9.842,9.842,0,0,1-.588-3.415v-.049a9.456,9.456,0,0,1,.6-3.343,8.664,8.664,0,0,1,1.714-2.829,8.406,8.406,0,0,1,2.681-1.958,8.1,8.1,0,0,1,3.477-.735,11.537,11.537,0,0,1,1.923.148,8.155,8.155,0,0,1,1.617.441,8.884,8.884,0,0,1,1.419.71,11.194,11.194,0,0,1,1.31.953l-.832.956a9.42,9.42,0,0,0-2.29-1.47,7.784,7.784,0,0,0-3.222-.586,6.658,6.658,0,0,0-2.864.61,6.973,6.973,0,0,0-2.24,1.664,7.541,7.541,0,0,0-1.457,2.444,8.392,8.392,0,0,0-.515,2.934v.049a9.16,9.16,0,0,0,.5,3.081,6.939,6.939,0,0,0,1.458,2.445,6.783,6.783,0,0,0,2.314,1.613,7.677,7.677,0,0,0,3.073.586,7.89,7.89,0,0,0,1.592-.158,9.233,9.233,0,0,0,1.481-.427,9.4,9.4,0,0,0,1.31-.621,7.521,7.521,0,0,0,1.078-.745V1778h-5.732v-1.15h6.955v6.593a11.467,11.467,0,0,1-2.9,1.795,9.314,9.314,0,0,1-3.832.77" transform="translate(-1350.077 -1768.276)" fill="#000" stroke="#000" stroke-width="1"/>
        <path id="Path_95467" data-name="Path 95467" d="M1877.469,1782.992a9.507,9.507,0,0,1-2.645,2.193,6.507,6.507,0,0,1-3.159.77,6.016,6.016,0,0,1-2.093-.355,5.116,5.116,0,0,1-1.665-.978,4.553,4.553,0,0,1-1.1-1.495,4.484,4.484,0,0,1-.4-1.921v-.049a4.23,4.23,0,0,1,1.163-2.988,8.378,8.378,0,0,1,3.268-2.033,9.928,9.928,0,0,1-1.444-1.958,4.12,4.12,0,0,1-.465-1.959v-.049a3.718,3.718,0,0,1,.319-1.542,3.8,3.8,0,0,1,.882-1.238,4,4,0,0,1,1.358-.82,4.976,4.976,0,0,1,1.728-.293,4.12,4.12,0,0,1,1.555.293,3.979,3.979,0,0,1,1.248.8,3.74,3.74,0,0,1,.834,1.188,3.519,3.519,0,0,1,.305,1.445v.048a3.553,3.553,0,0,1-1.114,2.681,8.393,8.393,0,0,1-3.1,1.75l4.5,4.629a15.938,15.938,0,0,0,1.188-1.934q.552-1.054,1.041-2.23l1.151.466q-.587,1.323-1.212,2.473a16.2,16.2,0,0,1-1.335,2.081l3.159,3.256-1,.834Zm-5.779,1.861a5.159,5.159,0,0,0,2.669-.722,9.289,9.289,0,0,0,2.3-1.972l-5.068-5.241a6.63,6.63,0,0,0-2.988,1.825,3.632,3.632,0,0,0-.931,2.364v.049a3.582,3.582,0,0,0,.3,1.458,3.487,3.487,0,0,0,.832,1.174,3.848,3.848,0,0,0,1.273.784,4.463,4.463,0,0,0,1.616.281m.49-9.157q3.7-1.178,3.7-3.6v-.05a2.61,2.61,0,0,0-.771-1.922,2.637,2.637,0,0,0-1.946-.773,2.951,2.951,0,0,0-2.144.8,2.636,2.636,0,0,0-.82,1.97v.05a3.007,3.007,0,0,0,.1.783,3.194,3.194,0,0,0,.331.772,7.2,7.2,0,0,0,.612.882c.252.318.567.681.942,1.09" transform="translate(-1548.88 -1768.276)" fill="#000" stroke="#000" stroke-width="1"/>
        <path id="Path_95468" data-name="Path 95468" d="M2100.376,1769.524h1.272v15.991h10.065v1.149h-11.337Z" transform="translate(-1736.661 -1769.524)" fill="#000" stroke="#000" stroke-width="1"/>
        <path id="Path_95469" data-name="Path 95469" d="M2228.823,1769h1.225l7.983,17.264h-1.4l-2.18-4.8h-10.113l-2.179,4.8h-1.323Zm5.094,11.314-4.506-9.918-4.53,9.918Z" transform="translate(-1831.54 -1769.004)" fill="#000" stroke="#000" stroke-width="1"/>
        <path id="Path_95470" data-name="Path 95470" d="M2377.442,1786.936a8.059,8.059,0,0,1-2.826-.479,6.135,6.135,0,0,1-2.231-1.419,6.453,6.453,0,0,1-1.457-2.316,9.047,9.047,0,0,1-.514-3.182v-10.016h1.274v9.893a6.683,6.683,0,0,0,1.531,4.713,5.529,5.529,0,0,0,4.272,1.654,6.684,6.684,0,0,0,2.35-.392,4.694,4.694,0,0,0,1.8-1.175,5.283,5.283,0,0,0,1.151-1.959,8.319,8.319,0,0,0,.4-2.718v-10.016h1.274v9.868a9.4,9.4,0,0,1-.515,3.245,6.577,6.577,0,0,1-1.446,2.364,6.1,6.1,0,0,1-2.215,1.445,7.994,7.994,0,0,1-2.854.49" transform="translate(-1949.671 -1769.524)" fill="#000" stroke="#000" stroke-width="1"/>
        <path id="Path_95471" data-name="Path 95471" d="M2512.917,1769.524h1.2l11.83,14.913v-14.913h1.224v17.14h-.957l-12.072-15.229v15.229h-1.224Z" transform="translate(-2063.869 -1769.524)" fill="#000" stroke="#000" stroke-width="1"/>
        <path id="Path_95472" data-name="Path 95472" d="M2657.4,1769.526h5.7a10.167,10.167,0,0,1,3.688.647,8.726,8.726,0,0,1,2.888,1.8,8,8,0,0,1,1.874,2.706,8.51,8.51,0,0,1,.66,3.366v.05a8.608,8.608,0,0,1-.66,3.381,7.994,7.994,0,0,1-1.874,2.718,8.865,8.865,0,0,1-2.888,1.811,9.951,9.951,0,0,1-3.687.662h-5.7Zm5.7,15.988a8.649,8.649,0,0,0,3.234-.576,7.282,7.282,0,0,0,2.448-1.572,7,7,0,0,0,1.555-2.334,7.517,7.517,0,0,0,.552-2.887v-.049a7.55,7.55,0,0,0-.552-2.875,7.115,7.115,0,0,0-1.555-2.358,7.338,7.338,0,0,0-2.448-1.6,8.5,8.5,0,0,0-3.234-.59h-4.431v14.838Z" transform="translate(-2179.846 -1769.526)" fill="#000" stroke="#000" stroke-width="1"/>
        <path id="Path_95473" data-name="Path 95473" d="M2801.045,1769.524h7.2a8.078,8.078,0,0,1,2.817.453,5.463,5.463,0,0,1,2.007,1.238,4.385,4.385,0,0,1,.957,1.431,4.5,4.5,0,0,1,.342,1.752v.047a4.644,4.644,0,0,1-.379,1.923,4.347,4.347,0,0,1-1.054,1.458,5.408,5.408,0,0,1-1.592.991,8.05,8.05,0,0,1-2,.526l5.658,7.321h-1.617l-5.46-7.1h-5.609v7.1h-1.271Zm7.051,8.888a7.051,7.051,0,0,0,2-.27,4.8,4.8,0,0,0,1.579-.774,3.65,3.65,0,0,0,1.04-1.228,3.523,3.523,0,0,0,.379-1.659v-.049a3.305,3.305,0,0,0-1.286-2.751,5.773,5.773,0,0,0-3.636-1.008h-5.853v7.737Z" transform="translate(-2294.431 -1769.524)" fill="#000" stroke="#000" stroke-width="1"/>
        <path id="Path_95474" data-name="Path 95474" d="M2938.424,1779.882l-7.346-10.357h1.593l6.416,9.207,6.439-9.207h1.516l-7.344,10.335v6.806h-1.273Z" transform="translate(-2396.259 -1769.524)" fill="#000" stroke="#000" stroke-width="1"/>
      </g>
      <rect id="Rectangle_28" data-name="Rectangle 28" width="548.904" height="1.663" transform="translate(0 84.807)" fill="#000" stroke="#000" stroke-width="1.5"/>
    </g>
    <g id="Group_7094" data-name="Group 7094" transform="translate(602.499 -138.946)">
      <path id="Path_95475" data-name="Path 95475" d="M1367.217,261.7c0-.08-.008-.159-.008-.239-.032-.724-.079-1.456-.127-2.18-.016-.175-.024-.342-.04-.517-.056-.851-.128-1.695-.208-2.538a1.793,1.793,0,0,0-.015-.207,110.414,110.414,0,0,0-220.313,10.655c0,1.058.015,2.109.047,3.159.039,1.4.1,2.8.2,4.194a109.568,109.568,0,0,0,16.035,50.3c.485.8.979,1.584,1.5,2.363.231.358.471.716.709,1.074q.776,1.17,1.591,2.316a110.375,110.375,0,0,0,200.745-63.406c0-1.663-.041-3.326-.111-4.973m-5.188,10.806a105.243,105.243,0,0,1-190.862,55.17c-.557-.772-1.1-1.56-1.631-2.348-.231-.342-.47-.692-.692-1.043-.526-.788-1.035-1.592-1.528-2.4a104.613,104.613,0,0,1-15.51-49.417q-.118-2.089-.143-4.2c-.008-.533-.016-1.066-.016-1.6a105.271,105.271,0,0,1,210.374-5.96c.008.135.017.271.024.406.04.827.08,1.647.1,2.475.024.859.032,1.727.04,2.594v.485q0,1.217-.025,2.435c-.023,1.138-.072,2.268-.135,3.4" transform="translate(-1146.506 -156.261)" fill="#000"/>
      <path id="Path_95476" data-name="Path 95476" d="M1607.617,354.882c-.128-1-.342-2.467-.652-4.329-.208-1.194-.447-2.562-.725-4.066-3.907-21.008-15.414-69.971-34.233-95.053-.574-.78-1.17-1.536-1.767-2.268l-.732-.9c-.677.39-1.633.955-2.8,1.695-.454.939-1.552,3.271-2.912,6.82a145.341,145.341,0,0,0-7.56,28.536,151.436,151.436,0,0,0,.8,52.806c.269,1.432.581,2.881.906,4.345a149.966,149.966,0,0,0,8.937,27.215l.071.159a32.287,32.287,0,0,0,3.048,4.5,20,20,0,0,0,3.055,3.087,9.8,9.8,0,0,0,3.111,1.719,11.017,11.017,0,0,0,3.191.374c5.221,0,13.766-1.966,20.427-5.7a28.447,28.447,0,0,0,3.979-2.626,20.306,20.306,0,0,0,2.108-1.91l.215-.278c.286-.422,2.721-4.432,1.528-14.133m-4.417,10.862a5.692,5.692,0,0,1-.374.971,19.114,19.114,0,0,1-3.04,2.475c-7.6,5.125-19.623,7.034-22.448,6.167a7.059,7.059,0,0,1-2.571-1.7,21.916,21.916,0,0,1-2.785-3.3,23.1,23.1,0,0,1-1.5-2.348,145.469,145.469,0,0,1-8.213-24.485c-.35-1.456-.677-2.9-.97-4.329a147.28,147.28,0,0,1-1.162-53.085,137.866,137.866,0,0,1,9-31.87c17.722,24.008,28.95,71.164,32.96,91.934.294,1.512.541,2.881.756,4.1.414,2.332.684,4.082.812,5.1.676,5.554.032,8.841-.47,10.377" transform="translate(-1455.014 -225.867)" fill="#000" stroke="rgba(0,0,0,0)" stroke-width="1"/>
      <path id="Path_95477" data-name="Path 95477" d="M1487.452,365.745v36.088L1451.5,416.919l-.518.215-3.572-1.321-41.468-15.35-.453-.167-.208-1.122c-.048-.271-.208-1.154-.438-2.563-.453-2.809-1.194-7.695-1.933-13.925-.151-1.281-.3-2.618-.454-4a287.641,287.641,0,0,1-1.591-44.984c.072-1.337.16-2.682.263-4.011.907-11.713,2.983-22.95,6.954-31.87,11.825-26.57,33.406-42.255,42.311-47.857,1.17-.74,2.125-1.305,2.8-1.695l.731.9c.6.732,1.194,1.488,1.767,2.268a93.231,93.231,0,0,0-8.211,5.347c-10.035,7.249-26.332,21.47-35.761,42.661-3.747,8.427-5.721,19.194-6.581,30.509-.1,1.321-.183,2.658-.255,3.995a288.4,288.4,0,0,0,1.561,44.021c.144,1.385.286,2.713.438,3.987.653,5.642,1.312,10.185,1.759,13.066.151.979.279,1.759.374,2.332l2.284.843,35.841,13.273,3.756,1.392.3-.127,32.276-13.544v-30a19.12,19.12,0,0,0,3.04-2.475,5.72,5.72,0,0,0,.374-.971Z" transform="translate(-1338.7 -225.867)" fill="#000"/>
      <path id="Path_95478" data-name="Path 95478" d="M1459.077,523.586c-2.641-19.345-6.214-38.077-6.245-38.26a4.563,4.563,0,0,0-4.123,4.218c-.437,6.286-2.037,18.7-7.783,25.265-5.443,6.231-3.739,21.661.367,34.2,1.05,3.183,4.1,11.618,8.586,16.743a15.375,15.375,0,0,0,2.992,2.69,8.627,8.627,0,0,0,2.888,1.281,4.142,4.142,0,0,0,.875.1,3.738,3.738,0,0,0,2.625-1.1c1.441-1.4,5.269-5.109-.183-45.144m-2.53,42.238a3.8,3.8,0,0,1-.907-.35,10.121,10.121,0,0,1-3.025-2.61c-2.658-3.151-5.386-8.531-7.543-15.1-4.3-13.13-4.79-26.172-1.145-30.343,4.026-4.607,6.239-11.419,7.456-17.562,1.193,6.995,2.618,15.9,3.836,24.891,4.79,35.459,1.957,40.425,1.329,41.069" transform="translate(-1366.643 -405.209)" fill="#000" stroke="rgba(0,0,0,0)" stroke-width="1"/>
      <path id="Path_95479" data-name="Path 95479" d="M1601.263,756.79a81.769,81.769,0,0,0-5.547,35.3c.063,1.369.167,2.762.3,4.186l-.517.215-3.573-1.321q-.192-2.221-.27-4.345c-.693-17.515,3.468-30.239,6.549-37.122.756-1.687,1.44-3.024,1.981-3.995a21.97,21.97,0,0,0,2.786,3.3c-.5,1.01-1.09,2.268-1.71,3.779" transform="translate(-1483.22 -605.223)" fill="#000" stroke="rgba(0,0,0,0)" stroke-width="1"/>
      <path id="Path_95480" data-name="Path 95480" d="M1441.031,806.411a31.99,31.99,0,0,1-2.768,2.968,51.8,51.8,0,0,1-13.631,9.1c-1.649.78-3.431,1.544-5.356,2.268l-.453-.167-.208-1.122c-.047-.271-.206-1.154-.436-2.562q2.016-.764,3.795-1.591a49.833,49.833,0,0,0,13.3-8.61,32,32,0,0,0,2.738-2.888,10.108,10.108,0,0,0,3.023,2.61" transform="translate(-1352.035 -646.146)" fill="#000"/>
      <path id="Path_95481" data-name="Path 95481" d="M1604.131,634.509a1.356,1.356,0,1,0-.923,1.607,1.261,1.261,0,0,0,.923-1.607" transform="translate(-1490.704 -517.381)" fill="#000"/>
      <path id="Path_95482" data-name="Path 95482" d="M1597.193,609.075a1.357,1.357,0,0,0-2.641.6,1.357,1.357,0,0,0,2.641-.6" transform="translate(-1485.439 -498.083)" fill="#000"/>
      <path id="Path_95483" data-name="Path 95483" d="M1591.954,583.334a1.357,1.357,0,1,0-1.122,1.48,1.262,1.262,0,0,0,1.122-1.48" transform="translate(-1481.464 -478.548)" fill="#000"/>
      <path id="Path_95484" data-name="Path 95484" d="M1588.422,557.236a1.357,1.357,0,0,0-2.7.255,1.277,1.277,0,0,0,1.479,1.146,1.264,1.264,0,0,0,1.218-1.4" transform="translate(-1478.784 -458.738)" fill="#000"/>
      <path id="Path_95485" data-name="Path 95485" d="M1585.189,529.807a1.255,1.255,0,0,0-1.305,1.32,1.27,1.27,0,0,0,1.408,1.234,1.28,1.28,0,1,0-.1-2.555" transform="translate(-1477.395 -438.859)" fill="#000"/>
      <path id="Path_95486" data-name="Path 95486" d="M1585.138,503.431a1.247,1.247,0,0,0-1.384,1.233,1.356,1.356,0,0,0,2.705.088,1.257,1.257,0,0,0-1.321-1.321" transform="translate(-1477.297 -418.905)" fill="#000"/>
      <path id="Path_95487" data-name="Path 95487" d="M1586.761,477a1.248,1.248,0,0,0-1.457,1.138,1.353,1.353,0,0,0,2.689.262,1.251,1.251,0,0,0-1.232-1.4" transform="translate(-1478.465 -398.906)" fill="#000"/>
      <path id="Path_95488" data-name="Path 95488" d="M1590.063,450.816a1.282,1.282,0,1,0,1.139,1.48,1.255,1.255,0,0,0-1.139-1.48" transform="translate(-1480.901 -379.086)" fill="#000"/>
      <path id="Path_95489" data-name="Path 95489" d="M1594.986,424.806a1.28,1.28,0,1,0,1.049,1.552,1.261,1.261,0,0,0-1.049-1.552" transform="translate(-1484.565 -359.395)" fill="#000"/>
      <path id="Path_95490" data-name="Path 95490" d="M1601.575,399.2a1.28,1.28,0,1,0,.946,1.615,1.256,1.256,0,0,0-.946-1.615" transform="translate(-1489.492 -340.005)" fill="#000"/>
      <path id="Path_95491" data-name="Path 95491" d="M1609.831,374.217a1.281,1.281,0,1,0,.828,1.679,1.266,1.266,0,0,0-.828-1.679" transform="translate(-1495.671 -321.077)" fill="#000"/>
      <path id="Path_95492" data-name="Path 95492" d="M1619.784,350.691a1.28,1.28,0,1,0,.651,1.751,1.263,1.263,0,0,0-.651-1.751" transform="translate(-1503.109 -303.233)" fill="#000"/>
      <path id="Path_95493" data-name="Path 95493" d="M1640.687,366.607a1.356,1.356,0,1,0-.422,1.8,1.25,1.25,0,0,0,.422-1.8" transform="translate(-1518.49 -314.954)" fill="#000"/>
      <path id="Path_95494" data-name="Path 95494" d="M1654.119,389.225a1.355,1.355,0,1,0-.582,1.759,1.251,1.251,0,0,0,.582-1.759" transform="translate(-1528.606 -331.995)" fill="#000"/>
      <path id="Path_95495" data-name="Path 95495" d="M1665.879,412.918a1.356,1.356,0,1,0-.7,1.718,1.253,1.253,0,0,0,.7-1.718" transform="translate(-1537.468 -349.862)" fill="#000"/>
      <path id="Path_95496" data-name="Path 95496" d="M1676.382,437.419a1.277,1.277,0,0,0-1.742-.693,1.28,1.28,0,1,0,1.742.693" transform="translate(-1545.393 -368.355)" fill="#000"/>
      <path id="Path_95497" data-name="Path 95497" d="M1685.846,462.436a1.354,1.354,0,0,0-2.554.891,1.355,1.355,0,0,0,2.554-.891" transform="translate(-1552.541 -387.246)" fill="#000"/>
      <path id="Path_95498" data-name="Path 95498" d="M1694.389,487.785a1.358,1.358,0,1,0-.9,1.623,1.256,1.256,0,0,0,.9-1.623" transform="translate(-1558.991 -406.396)" fill="#000"/>
      <path id="Path_95499" data-name="Path 95499" d="M1702.23,513.566a1.358,1.358,0,0,0-2.61.732,1.358,1.358,0,0,0,2.61-.732" transform="translate(-1564.914 -425.874)" fill="#000"/>
      <path id="Path_95500" data-name="Path 95500" d="M1709.361,539.441a1.356,1.356,0,1,0-.985,1.568,1.251,1.251,0,0,0,.985-1.568" transform="translate(-1570.304 -445.423)" fill="#000"/>
      <path id="Path_95501" data-name="Path 95501" d="M1715.906,565.518a1.358,1.358,0,0,0-2.641.613,1.358,1.358,0,0,0,2.641-.613" transform="translate(-1575.249 -465.133)" fill="#000"/>
      <path id="Path_95502" data-name="Path 95502" d="M1721.817,591.727a1.355,1.355,0,1,0-1.05,1.52,1.249,1.249,0,0,0,1.05-1.52" transform="translate(-1579.719 -484.937)" fill="#000"/>
      <path id="Path_95503" data-name="Path 95503" d="M1727.391,617.672a1.356,1.356,0,1,0-1.052,1.52,1.252,1.252,0,0,0,1.052-1.52" transform="translate(-1583.935 -504.565)" fill="#000"/>
      <path id="Path_95504" data-name="Path 95504" d="M1209.082,582.314q2.016.1,4.01.263c-.1,1.321-.183,2.658-.254,3.994q-2.005-.167-4.019-.247c-20.523-.859-41.937,3.955-56.865,8.379-1.782.517-3.47,1.042-5.054,1.552q-.142-2.09-.2-4.194c1.608-.51,3.31-1.034,5.11-1.56,15.159-4.456,36.517-9.128,57.271-8.188" transform="translate(-1146.654 -478.492)" fill="#000" stroke="rgba(0,0,0,0)" stroke-width="1"/>
      <path id="Path_95505" data-name="Path 95505" d="M1824.265,572.315l-.137.135c-.675.676-1.367,1.337-2.077,1.973-.907.828-1.845,1.624-2.817,2.379-.652.517-1.313,1.019-2,1.5-1.082.78-2.2,1.528-3.357,2.228-12.232,7.552-28.352,11.355-48.223,11.355-.311,0-.623,0-.932-.008q-4.487-.024-9.222-.318-2.028-.108-4.107-.287c-.213-1.217-.461-2.586-.756-4.1q2.078.19,4.138.318c25.193,1.631,48.494-1.989,63.979-15.477l.334-.287c.533-.478,1.058-.963,1.575-1.472.366-.342.724-.708,1.082-1.074.733-.756,1.449-1.536,2.134-2.348.08.843.151,1.687.206,2.538.017.175.025.342.04.517.048.724.1,1.456.128,2.18,0,.079.009.159.009.239" transform="translate(-1603.554 -466.877)" fill="#000" stroke="rgba(0,0,0,0)" stroke-width="1"/>
      <path id="Path_95506" data-name="Path 95506" d="M1262.952,767.914c.143,1.384.286,2.713.438,3.986-1.322.215-2.65.462-3.971.732-14.053,2.9-27.876,8.634-39.549,14.594-.549.271-1.09.557-1.632.835-1,.525-1.989,1.043-2.951,1.568-.542-.763-1.075-1.536-1.592-2.316-.239-.358-.477-.716-.708-1.074q1.493-.8,3.032-1.616.752-.393,1.528-.787c12.1-6.215,26.57-12.239,41.419-15.207,1.32-.263,2.65-.51,3.987-.716" transform="translate(-1196.801 -618.996)" fill="#000" stroke="rgba(0,0,0,0)" stroke-width="1"/>
      <path id="Path_95507" data-name="Path 95507" d="M1816.9,566.14c-.6,1.727-1.283,3.406-2.038,5.045a54.792,54.792,0,0,1-2.842,5.3c-.046.072-.086.143-.134.214-9.469,15.334-26.9,26.284-52.019,32.61q-6.983,1.754-14.753,3.048c-1.313.207-2.635.414-3.979.613V608.9c1.329-.191,2.658-.406,3.979-.629,26.108-4.408,49.209-13.607,61.576-30.979a47.851,47.851,0,0,0,3.357-5.411q.812-1.516,1.52-3.1.167-.347.311-.692c.039-.1.087-.2.127-.3q.811-1.922,1.472-3.947c.144-.421.278-.851.4-1.281l.678.207,2.117.629c.007.072.015.136.015.207.079.844.152,1.687.208,2.539" transform="translate(-1596.358 -463.639)" fill="#000" stroke="rgba(0,0,0,0)" stroke-width="1"/>
    </g>
  </g>
</svg>
