<svg id="Group_7290" data-name="Group 7290" xmlns="http://www.w3.org/2000/svg" width="36.845" height="36.845" viewBox="0 0 36.845 36.845">
  <path id="Path_95475" data-name="Path 95475" d="M1183.332,173.853c0-.013,0-.027,0-.04-.005-.121-.013-.243-.021-.364,0-.029,0-.057-.007-.086-.009-.142-.021-.283-.035-.424a.3.3,0,0,0,0-.035,18.423,18.423,0,0,0-36.76,1.778c0,.177,0,.352.008.527.007.234.017.467.033.7a18.281,18.281,0,0,0,2.675,8.393c.081.133.163.264.25.394.038.06.078.119.118.179.086.13.175.259.266.386a18.416,18.416,0,0,0,33.495-10.579c0-.277-.007-.555-.019-.83m-.866,1.8a17.56,17.56,0,0,1-31.846,9.205c-.093-.129-.183-.26-.272-.392-.038-.057-.078-.116-.115-.174-.088-.131-.173-.266-.255-.4a17.455,17.455,0,0,1-2.588-8.245q-.02-.348-.024-.7c0-.089,0-.178,0-.267a17.565,17.565,0,0,1,35.1-.994c0,.023,0,.045,0,.068.007.138.013.275.017.413s.005.288.006.433v.081q0,.2,0,.406c0,.19-.012.378-.023.567" transform="translate(-1146.506 -156.261)" fill="#ffffff"/>
  <path id="Path_95476" data-name="Path 95476" d="M1563.195,266.056c-.021-.167-.057-.412-.109-.722-.035-.2-.074-.428-.121-.678-.652-3.505-2.572-11.675-5.712-15.86-.1-.13-.2-.256-.295-.378l-.122-.15c-.113.065-.272.159-.468.283-.076.157-.259.546-.486,1.138a24.258,24.258,0,0,0-1.261,4.761,25.262,25.262,0,0,0,.134,8.811c.045.239.1.481.151.725a25.008,25.008,0,0,0,1.491,4.541l.012.027a5.391,5.391,0,0,0,.509.751,3.345,3.345,0,0,0,.51.515,1.633,1.633,0,0,0,.519.287,1.839,1.839,0,0,0,.532.062,7.843,7.843,0,0,0,3.408-.951,4.742,4.742,0,0,0,.664-.438,3.377,3.377,0,0,0,.352-.319l.036-.047a3.634,3.634,0,0,0,.255-2.358m-.737,1.812a.96.96,0,0,1-.062.162,3.19,3.19,0,0,1-.507.413,6.566,6.566,0,0,1-3.746,1.029,1.179,1.179,0,0,1-.429-.284,3.656,3.656,0,0,1-.465-.551,3.863,3.863,0,0,1-.25-.392,24.268,24.268,0,0,1-1.37-4.085c-.058-.243-.113-.483-.162-.722a24.57,24.57,0,0,1-.194-8.857,22.98,22.98,0,0,1,1.5-5.318c2.957,4.006,4.83,11.874,5.5,15.339.049.252.09.481.126.684.069.389.114.681.135.851a4.106,4.106,0,0,1-.078,1.731" transform="translate(-1537.733 -244.529)" fill="#ffffff"/>
  <path id="Path_95477" data-name="Path 95477" d="M1415.053,267.868v6.021l-6,2.517-.086.036-.6-.22-6.919-2.561-.075-.028-.035-.187c-.008-.045-.035-.193-.073-.428-.075-.469-.2-1.284-.323-2.324-.025-.214-.051-.437-.076-.668a48.008,48.008,0,0,1-.266-7.506c.012-.223.027-.447.044-.669a16.564,16.564,0,0,1,1.16-5.318,18.961,18.961,0,0,1,7.06-7.985c.2-.123.354-.218.467-.283l.122.15c.1.122.2.248.295.378a15.582,15.582,0,0,0-1.37.892,18.253,18.253,0,0,0-5.967,7.118,15.847,15.847,0,0,0-1.1,5.091c-.016.22-.031.443-.043.667a48.1,48.1,0,0,0,.26,7.345c.024.231.048.453.073.665.109.941.219,1.7.293,2.18.025.163.046.293.062.389l.381.141,5.98,2.215.627.232.05-.021,5.385-2.26v-5.006a3.2,3.2,0,0,0,.507-.413.975.975,0,0,0,.063-.162Z" transform="translate(-1390.233 -244.529)" fill="#ffffff"/>
  <path id="Path_95478" data-name="Path 95478" d="M1441.09,491.71c-.441-3.228-1.037-6.353-1.042-6.384a.75.75,0,0,0-.473.226.759.759,0,0,0-.215.478c-.073,1.049-.34,3.12-1.3,4.216-.908,1.04-.624,3.614.061,5.707a8.978,8.978,0,0,0,1.433,2.794,2.572,2.572,0,0,0,.5.449,1.44,1.44,0,0,0,.482.214.69.69,0,0,0,.146.017.624.624,0,0,0,.438-.183c.24-.234.879-.852-.031-7.532m-.422,7.048a.625.625,0,0,1-.151-.058,1.687,1.687,0,0,1-.5-.435,7.956,7.956,0,0,1-1.259-2.519c-.717-2.191-.8-4.367-.191-5.063a6.453,6.453,0,0,0,1.244-2.93c.2,1.167.437,2.653.64,4.153.8,5.916.327,6.745.222,6.852" transform="translate(-1425.667 -471.958)" fill="#ffffff"/>
  <path id="Path_95479" data-name="Path 95479" d="M1593.2,750.89a13.646,13.646,0,0,0-.925,5.89c.01.228.028.461.051.7l-.086.036-.6-.22c-.021-.247-.036-.489-.045-.725a13.854,13.854,0,0,1,1.093-6.194c.126-.281.24-.5.331-.667a3.652,3.652,0,0,0,.465.551c-.084.169-.182.378-.285.631" transform="translate(-1573.5 -725.6)" fill="#ffffff"/>
  <path id="Path_95480" data-name="Path 95480" d="M1421.99,804.237a5.317,5.317,0,0,1-.462.5,8.645,8.645,0,0,1-2.274,1.518c-.275.13-.572.258-.894.378l-.076-.028-.035-.187c-.008-.045-.034-.193-.073-.428q.337-.127.633-.266a8.317,8.317,0,0,0,2.219-1.437,5.308,5.308,0,0,0,.457-.482,1.688,1.688,0,0,0,.5.435" transform="translate(-1407.141 -777.496)" fill="#ffffff"/>
  <path id="Path_95481" data-name="Path 95481" d="M1601.917,633.749a.226.226,0,1,0-.154.268.21.21,0,0,0,.154-.268" transform="translate(-1582.991 -614.206)" fill="#ffffff"/>
  <path id="Path_95482" data-name="Path 95482" d="M1594.96,608.253a.227.227,0,0,0-.441.1.226.226,0,0,0,.441-.1" transform="translate(-1576.313 -589.733)" fill="#ffffff"/>
  <path id="Path_95483" data-name="Path 95483" d="M1589.709,582.445a.226.226,0,1,0-.187.247.211.211,0,0,0,.187-.247" transform="translate(-1571.273 -564.962)" fill="#ffffff"/>
  <path id="Path_95484" data-name="Path 95484" d="M1586.168,556.274a.226.226,0,0,0-.45.043.226.226,0,0,0,.45-.043" transform="translate(-1567.874 -539.839)" fill="#ffffff"/>
  <path id="Path_95485" data-name="Path 95485" d="M1584.1,529.806a.209.209,0,0,0-.218.22.212.212,0,0,0,.235.206.214.214,0,1,0-.017-.426" transform="translate(-1566.114 -514.631)" fill="#ffffff"/>
  <path id="Path_95486" data-name="Path 95486" d="M1583.984,503.43a.208.208,0,0,0-.231.206.226.226,0,1,0,.231-.206" transform="translate(-1565.991 -489.327)" fill="#ffffff"/>
  <path id="Path_95487" data-name="Path 95487" d="M1585.541,477a.208.208,0,0,0-.243.19.226.226,0,0,0,.449.044.209.209,0,0,0-.206-.234" transform="translate(-1567.471 -463.965)" fill="#ffffff"/>
  <path id="Path_95488" data-name="Path 95488" d="M1588.775,450.8a.214.214,0,1,0,.19.247.209.209,0,0,0-.19-.247" transform="translate(-1570.561 -438.831)" fill="#ffffff"/>
  <path id="Path_95489" data-name="Path 95489" d="M1593.632,424.774a.214.214,0,1,0,.175.259.211.211,0,0,0-.175-.259" transform="translate(-1575.208 -413.86)" fill="#ffffff"/>
  <path id="Path_95490" data-name="Path 95490" d="M1600.156,399.149a.214.214,0,1,0,.158.27.209.209,0,0,0-.158-.27" transform="translate(-1581.455 -389.272)" fill="#ffffff"/>
  <path id="Path_95491" data-name="Path 95491" d="M1608.338,374.135a.214.214,0,1,0,.138.28.211.211,0,0,0-.138-.28" transform="translate(-1589.291 -365.268)" fill="#ffffff"/>
  <path id="Path_95492" data-name="Path 95492" d="M1618.19,350.558a.214.214,0,1,0,.109.292.211.211,0,0,0-.109-.292" transform="translate(-1598.723 -342.639)" fill="#ffffff"/>
  <path id="Path_95493" data-name="Path 95493" d="M1638.616,366.122a.226.226,0,1,0-.07.3.208.208,0,0,0,.07-.3" transform="translate(-1618.227 -357.504)" fill="#ffffff"/>
  <path id="Path_95494" data-name="Path 95494" d="M1652,388.662a.226.226,0,1,0-.1.293.211.211,0,0,0,.1-.293" transform="translate(-1631.055 -379.113)" fill="#ffffff"/>
  <path id="Path_95495" data-name="Path 95495" d="M1663.719,412.292a.226.226,0,1,0-.117.287.209.209,0,0,0,.117-.287" transform="translate(-1642.293 -401.771)" fill="#ffffff"/>
  <path id="Path_95496" data-name="Path 95496" d="M1674.2,436.746a.213.213,0,0,0-.291-.116.214.214,0,1,0,.291.116" transform="translate(-1652.344 -425.223)" fill="#ffffff"/>
  <path id="Path_95497" data-name="Path 95497" d="M1683.652,461.724a.226.226,0,0,0-.426.149.226.226,0,0,0,.426-.149" transform="translate(-1661.409 -449.178)" fill="#ffffff"/>
  <path id="Path_95498" data-name="Path 95498" d="M1692.179,487.043a.226.226,0,1,0-.15.271.209.209,0,0,0,.15-.271" transform="translate(-1669.588 -473.463)" fill="#ffffff"/>
  <path id="Path_95499" data-name="Path 95499" d="M1700.011,512.8a.227.227,0,1,0-.158.266.209.209,0,0,0,.158-.266" transform="translate(-1677.099 -498.164)" fill="#ffffff"/>
  <path id="Path_95500" data-name="Path 95500" d="M1707.137,538.642a.226.226,0,1,0-.165.262.209.209,0,0,0,.165-.262" transform="translate(-1683.935 -522.954)" fill="#ffffff"/>
  <path id="Path_95501" data-name="Path 95501" d="M1713.673,564.7a.227.227,0,0,0-.441.1.227.227,0,0,0,.441-.1" transform="translate(-1690.204 -547.949)" fill="#ffffff"/>
  <path id="Path_95502" data-name="Path 95502" d="M1719.583,590.881a.226.226,0,1,0-.175.254.209.209,0,0,0,.175-.254" transform="translate(-1695.874 -573.063)" fill="#ffffff"/>
  <path id="Path_95503" data-name="Path 95503" d="M1725.157,616.826a.226.226,0,1,0-.175.254.209.209,0,0,0,.175-.254" transform="translate(-1701.221 -597.954)" fill="#ffffff"/>
  <path id="Path_95504" data-name="Path 95504" d="M1157.11,582.213q.336.016.669.044c-.016.22-.03.443-.042.666-.223-.019-.446-.032-.671-.041a30.477,30.477,0,0,0-9.488,1.4c-.3.086-.579.174-.843.259q-.024-.349-.033-.7c.268-.085.552-.173.852-.26a30.43,30.43,0,0,1,9.556-1.366" transform="translate(-1146.694 -564.89)" fill="#ffffff"/>
  <path id="Path_95505" data-name="Path 95505" d="M1762.925,567.754l-.023.023c-.113.113-.228.223-.347.329q-.227.207-.47.4c-.109.086-.219.17-.333.251-.181.13-.368.255-.56.372a15.175,15.175,0,0,1-8.046,1.895h-.155q-.749,0-1.539-.053-.339-.018-.685-.048c-.036-.2-.077-.431-.126-.684.231.021.461.039.69.053,4.2.272,8.091-.332,10.675-2.582l.056-.048c.089-.08.177-.161.263-.246.061-.057.121-.118.181-.179.122-.126.242-.256.356-.392.013.141.025.281.035.424,0,.029,0,.057.007.086.008.121.016.243.021.364,0,.013,0,.026,0,.04" transform="translate(-1726.099 -550.161)" fill="#ffffff"/>
  <path id="Path_95506" data-name="Path 95506" d="M1221.323,767.914q.036.347.073.665c-.22.036-.442.077-.663.122a26.828,26.828,0,0,0-6.6,2.435c-.092.045-.182.093-.272.139-.167.088-.332.174-.493.262-.09-.127-.179-.256-.266-.386-.04-.06-.08-.12-.118-.179q.249-.134.506-.27l.255-.131a27.2,27.2,0,0,1,6.911-2.537c.22-.044.442-.085.665-.119" transform="translate(-1210.285 -743.067)" fill="#ffffff"/>
  <path id="Path_95507" data-name="Path 95507" d="M1753.771,563.157c-.1.288-.214.568-.34.842a9.081,9.081,0,0,1-.474.884l-.022.036c-1.58,2.559-4.488,4.386-8.679,5.441q-1.165.293-2.462.509c-.219.035-.439.069-.664.1v-.679c.222-.032.443-.068.664-.1,4.356-.736,8.211-2.27,10.274-5.169a7.934,7.934,0,0,0,.56-.9q.136-.253.254-.518c.019-.039.036-.077.052-.116.007-.017.014-.033.021-.05.09-.214.172-.433.246-.659.024-.07.046-.142.068-.214l.113.035.353.1a.274.274,0,0,1,0,.035c.013.141.025.281.034.424" transform="translate(-1716.975 -546.054)" fill="#ffffff"/>
</svg>
