<svg xmlns="http://www.w3.org/2000/svg" width="28.47" height="28.521" viewBox="0 0 28.47 28.521">
  <path id="Icon_feather-phone-call" data-name="Icon feather-phone-call" d="M19.824,6.649a6.437,6.437,0,0,1,5.085,5.085M19.824,1.5A11.586,11.586,0,0,1,30.058,11.722M28.771,21.995v3.862a2.575,2.575,0,0,1-2.806,2.575,25.477,25.477,0,0,1-11.11-3.952A25.1,25.1,0,0,1,7.13,16.755,25.477,25.477,0,0,1,3.178,5.594,2.575,2.575,0,0,1,5.74,2.787H9.6A2.575,2.575,0,0,1,12.177,5a16.529,16.529,0,0,0,.9,3.617,2.575,2.575,0,0,1-.579,2.716L10.864,12.97a20.6,20.6,0,0,0,7.724,7.724l1.635-1.635a2.575,2.575,0,0,1,2.716-.579,16.529,16.529,0,0,0,3.617.9A2.575,2.575,0,0,1,28.771,21.995Z" transform="translate(-2.417 -0.672)" fill="none" stroke="#fff" stroke-linecap="round" stroke-linejoin="round" stroke-width="1.5"/>
</svg>
