<?xml version="1.0" encoding="UTF-8"?>
<svg id="Layer_2" data-name="Layer 2" xmlns="http://www.w3.org/2000/svg" viewBox="0 0 53.82 53.82">
  <defs>
    <style>
      .cls-1 {
        fill: #131f48;
      }
    </style>
  </defs>
  <g id="Untitled-1_Image" data-name="Untitled-1 Image">
    <g>
      <path class="cls-1" d="m5.57,0C6.03,0,6.48,0,6.94,0c.2.06.39.12.59.17,1.21.3,2.33.83,3.41,1.44.28.16.52.18.84.12,1.81-.38,3.61-.77,5.43-1.07,1.88-.3,3.77-.51,5.67-.57.15,0,.3-.06.45-.09,2.38,0,4.77,0,7.15,0,.15.03.3.07.45.09,1.53.15,3.06.27,4.58.44,2.19.24,4.34.68,6.47,1.19.35.08.63.05.94-.12,1.06-.61,2.16-1.12,3.36-1.42.2-.05.4-.11.6-.17.46,0,.91,0,1.37,0,.06.03.11.08.17.1.95.26,1.51.88,1.74,1.83.16.67.06,1.32-.09,1.97-.22.96-.61,1.86-1.06,2.73-.12.23-.16.44-.08.7.68,2.43,1.1,4.91,1.25,7.43.15,2.47.06,4.94-.28,7.39-.21,1.54-.53,3.06-.97,4.56-.08.27-.06.5.06.75.23.47.47.94.66,1.43.46,1.2.83,2.42.37,3.72,4.46,1.79,5.18,7.69,1.15,10.46.13.1.25.2.37.3,1.78,1.47,2.54,3.33,2.18,5.63-.43,2.75-2.91,4.83-5.71,4.83-12.49,0-24.98,0-37.47-.01-.73,0-1.48-.07-2.18-.26-4.42-1.16-7.15-3.97-8.17-8.44-.06-.29-.13-.57-.19-.86,0-.81,0-1.61,0-2.42.03-.08.09-.15.1-.23.36-2.56,1.49-4.71,3.39-6.46.49-.45,1.03-.83,1.55-1.25-.05-.04-.11-.08-.17-.11-.7-.37-1.09-.97-1.23-1.73-.12-.63-.03-1.25.12-1.87.23-.96.61-1.86,1.07-2.73.11-.21.17-.41.1-.65-.71-2.46-1.12-4.97-1.27-7.53-.11-1.86-.09-3.71.07-5.56.19-2.14.57-4.26,1.17-6.33.08-.28.05-.5-.07-.75-.27-.57-.54-1.14-.76-1.72-.3-.79-.5-1.6-.47-2.46.04-1.17.7-2.02,1.82-2.35.06-.02.11-.07.17-.1Zm14.48,2.14c-.68.07-1.29.11-1.9.19-2.11.29-4.21.66-6.27,1.24-.56.16-1.04.11-1.54-.21-.98-.61-2.02-1.12-3.15-1.41-.32-.08-.65-.15-.98-.16-.58-.01-.84.26-.83.84,0,.29.06.59.13.88.23.94.63,1.82,1.1,2.66.24.43.25.83.13,1.3-.32,1.21-.62,2.44-.87,3.67-.29,1.39-.39,2.8-.46,4.22-.11,2.21-.02,4.41.28,6.6.21,1.56.55,3.1,1.03,4.6.16.51.13.94-.14,1.4-.47.82-.86,1.68-1.08,2.61-.08.32-.14.66-.13.98.02.52.25.75.77.71.48-.03.97-.12,1.44-.26,1.04-.32,2-.83,2.93-1.39.37-.22.72-.27,1.15-.16,3.41.88,6.88,1.44,10.39,1.68,1.59.11,3.18.11,4.78.13.45,0,.91-.06,1.35-.15,1.78-.38,3.44-1.06,4.98-2.02,1.69-1.06,3.17-2.31,3.66-4.39.1-.45.53-.66.98-.6.55.07.87.57.73,1.17-.21.92-.6,1.75-1.16,2.5-.84,1.13-1.89,2.01-3.07,2.76-.18.11-.35.23-.52.35.55,0,1.07-.07,1.59-.13,2.19-.24,4.35-.66,6.48-1.25.6-.17,1.1-.12,1.64.21.95.6,1.96,1.09,3.05,1.37.38.1.79.15,1.19.16.41.01.64-.18.66-.59.02-.38-.03-.77-.11-1.14-.22-.94-.63-1.81-1.1-2.65-.23-.41-.24-.8-.12-1.25.32-1.21.62-2.44.87-3.67.29-1.39.39-2.8.46-4.22.11-2.21.02-4.41-.28-6.6-.22-1.59-.58-3.16-1.06-4.7-.14-.45-.09-.84.13-1.25.33-.65.64-1.32.9-2,.17-.44.26-.91.33-1.37.1-.73-.27-1.09-1.01-1.01-.28.03-.55.09-.82.16-1.15.3-2.19.84-3.19,1.44-.44.26-.85.33-1.34.2-3.07-.79-6.19-1.34-9.34-1.58-1.88-.15-3.78-.17-5.67-.22-.45-.01-.91.07-1.35.16-2.05.42-3.93,1.24-5.65,2.42-1.43.99-2.62,2.16-3.03,3.93-.07.31-.29.52-.6.61-.68.2-1.28-.35-1.15-1.06.07-.37.2-.74.34-1.1.54-1.31,1.44-2.35,2.53-3.23.6-.48,1.24-.91,1.92-1.4Zm9.17,49.89c6.11,0,12.23,0,18.34,0,.37,0,.74-.02,1.1-.09,1.63-.3,2.71-1.25,3.18-2.84.47-1.59.03-2.98-1.17-4.1-.85-.8-1.9-1.05-3.05-1.05-11.21,0-22.42,0-33.64,0-.19,0-.39,0-.58,0-.49-.04-.87-.42-.87-.89,0-.46.37-.86.86-.9.17-.01.35,0,.53,0,11.23,0,22.46,0,33.69,0,.37,0,.74-.02,1.1-.09,2.77-.5,4.18-3.6,2.72-6.01-.84-1.38-2.12-1.97-3.71-1.97-12.26,0-24.53,0-36.79,0-.7,0-1.41.06-2.08.21-4.64,1.02-7.5,5.37-6.99,9.71.3,2.49,1.42,4.51,3.37,6.07,1.68,1.34,3.62,1.93,5.75,1.93,6.08,0,12.16,0,18.24,0Z"/>
      <path class="cls-1" d="m9.85,17.5c.76-.55,1.16-.58,1.56-.15.37.41.32.81-.23,1.52.24.25.53.52.46.92-.03.2-.13.41-.26.56-.36.41-.84.35-1.52-.15-.72.52-1.19.56-1.57.15-.35-.39-.29-.84.23-1.51-.22-.29-.54-.57-.43-1,.05-.19.15-.4.28-.54.39-.39.8-.32,1.47.2Z"/>
      <path class="cls-1" d="m14.4,27.38c-.03.2-.03.45-.09.69-.11.41-.44.64-.86.63-.41,0-.78-.23-.84-.65-.07-.44-.07-.91-.01-1.35.06-.43.47-.71.86-.7.4,0,.76.29.86.71.05.2.05.41.07.67Z"/>
      <path class="cls-1" d="m11.28,24.17c.21.03.44.04.65.1.4.12.65.48.64.86,0,.39-.27.78-.67.83-.44.06-.91.06-1.35,0-.42-.06-.66-.4-.67-.82-.01-.44.22-.78.65-.89.23-.06.48-.06.75-.08Z"/>
      <path class="cls-1" d="m15.68,26.06c-.22-.03-.45-.03-.67-.09-.4-.1-.66-.45-.67-.84,0-.39.24-.79.64-.85.47-.07.97-.07,1.45,0,.41.06.62.44.6.87-.01.41-.25.73-.67.83-.22.05-.45.06-.68.08Z"/>
      <path class="cls-1" d="m14.4,22.91c-.03.21-.04.46-.11.69-.11.38-.43.6-.82.61-.41,0-.79-.22-.85-.63-.07-.46-.08-.94-.01-1.4.06-.44.44-.67.88-.66.41.01.72.25.83.67.05.22.06.45.08.71Z"/>
      <path class="cls-1" d="m8.93,43.94c-.3,0-.6.01-.89,0-.5-.03-.87-.41-.87-.87,0-.48.38-.89.9-.91.59-.02,1.19-.02,1.79,0,.54.01.91.38.92.88,0,.5-.36.88-.89.9-.31.02-.63,0-.95,0,0,0,0,0,0,0Z"/>
    </g>
  </g>
</svg>