<?xml version="1.0" encoding="UTF-8"?>
<svg id="Layer_2" data-name="Layer 2" xmlns="http://www.w3.org/2000/svg" viewBox="0 0 54.38 54.32">
  <defs>
    <style>
      .cls-1 {
        fill: #131f48;
      }
    </style>
  </defs>
  <g id="Untitled-1_Image" data-name="Untitled-1 Image">
    <g>
      <path class="cls-1" d="m52.82,38.49c1.21-1.17,1.76-2.76,1.47-4.32-.28-1.52-1.28-2.75-2.78-3.43,1.82-1.6,2.85-3.82,2.85-6.16,0-2.36-1.05-4.61-2.89-6.23,1.59-.73,2.54-1.88,2.81-3.42.29-1.62-.21-3.06-1.5-4.29,1.52-1.48,1.97-3.34,1.25-5.13-.73-1.81-2.46-2.93-4.51-2.93h-5.49c-8.54,0-17.09,0-25.63,0-2.67,0-5.16,1.34-6.65,3.59-1.5,2.25-1.78,5.08-.75,7.55.5,1.19,1.25,2.22,2.31,3.12-1.62.73-2.54,1.85-2.83,3.4-.3,1.64.19,3.08,1.47,4.29-1.21,1.15-1.76,2.73-1.48,4.29.27,1.52,1.28,2.76,2.79,3.45-2.39,2.3-3.28,4.88-2.69,7.72H0v14.32h10.91v-1.7h2.81c4.77,0,9.53,0,14.29,0,.42,0,.92,0,1.39-.09.92-.16,1.84-.32,2.77-.49,1.42-.26,2.88-.52,4.33-.75,1.8-.28,3.23-1.04,4.36-2.32.68-.77,1.45-1.49,2.18-2.17.15-.14.42-.25.62-.26,1.06-.01,2.12-.01,3.17-.01.99,0,1.98,0,2.96,0,1.41-.02,2.73-.67,3.6-1.81.87-1.13,1.17-2.56.83-3.93-.22-.86-.69-1.64-1.4-2.31Zm-44.19,3.75v9.87H2.24v-9.87h6.39Zm2.26.3v-1.38c.16.45.35.91.58,1.38h-.58Zm34.53-1.18c-.29-.74-.77-1.32-1.45-1.77.34,0,.68,0,1.02,0,1.6,0,3.26-.01,4.89.02,1.23.03,2.24,1.07,2.25,2.33,0,1.25-1.01,2.28-2.32,2.34-1.12.05-2.22.04-3.38.03-.38,0-.75,0-1.13,0,.47-1.02.52-1.98.14-2.94Zm-3.51-23.72l-.82.82-.84-.85.83-.83.84.86Zm10-9.54c-.37.86-1.07,1.34-2.08,1.43-.14.01-.27,0-.41,0H16.52s0,2.23,0,2.23h32.97c1.3,0,2.24.64,2.53,1.71.19.7.07,1.42-.32,1.98-.39.56-1.01.9-1.75.97-1.65.14-3.31.14-4.94,0-1.59-.14-2.55-1.21-2.85-3.18l-.03-.21h-2.09l-.04.2c-.02.1-.04.21-.06.31-.04.21-.07.42-.13.62-.41,1.41-1.68,2.32-3.24,2.33-3.01,0-6.03,0-9.04,0h-3.29s-1.73,0-1.73,0c-1.32,0-2.65,0-3.97,0-2.71-.03-5.05-1.81-5.7-4.34-.44-1.72-.11-3.51.92-4.91,1.04-1.42,2.66-2.29,4.46-2.4.18-.01.35-.01.53-.01h9.17c7.14,0,14.27,0,21.41,0,1.01,0,1.71.29,2.23.9.6.72.72,1.52.35,2.38ZM12.65,27.83c.14-1.2,1.05-2.06,2.27-2.14.09,0,.19,0,.28,0,.05,0,.1,0,.15,0h32.9s0-2.23,0-2.23H15.27c-1.29,0-2.24-.64-2.53-1.71-.19-.7-.07-1.4.34-1.97.44-.61,1.17-.99,1.98-1.03.13,0,.26,0,.39,0h20.78c2.24,0,3.4,1,3.75,3.25l.03.21h2.09l.04-.2c.02-.11.04-.21.06-.31.03-.21.07-.41.13-.6.44-1.32,1.3-2.08,2.57-2.27,3.15-.46,5.76.95,6.81,3.68.67,1.75.49,3.65-.51,5.21-1.02,1.59-2.72,2.57-4.66,2.69-.19.01-.39.01-.58.01h-5.08c-8.46,0-16.93,0-25.39,0-.44,0-.83-.05-1.16-.15-1.06-.32-1.8-1.38-1.68-2.41Zm5.58,4.82c.15-.01.3-.01.49-.01h.09c10.17,0,20.35,0,30.52,0,.41,0,.78.05,1.1.14,1.07.32,1.81,1.38,1.69,2.41-.14,1.2-1.05,2.07-2.26,2.15-.14,0-.28,0-.42,0h-20.27c-.24-1.89-1.18-3.03-2.82-3.39-1.23-.27-2.35.05-3.27.94-.81.78-1.53,1.5-2.19,2.2-.19.2-.36.25-.67.27-.82-.01-1.64-.01-2.47,0h-1.22v2.23h1.74c-.17.18-.34.36-.51.54-.71.76-1.39,1.47-2.12,2.15-.27.24-.56.35-.85.33-.32-.03-.64-.24-.9-.59-1.39-1.9-1.62-3.89-.68-5.94.95-2.07,2.65-3.22,5.03-3.42Zm19.33,9.49c-.17.19-.33.38-.5.57-1.16,1.3-2.36,1.79-4,1.64-.58-.05-1.16-.07-1.74-.07-.4,0-.8,0-1.19.01-.63.01-1.28.02-1.91,0-.43-.01-.9-.13-1.46-.35-.46-.19-.92-.43-1.37-.66-.18-.09-.35-.19-.53-.28h0s.51-.49.51-.49c1.02-.96,2.04-1.92,3.06-2.87.02-.02.1-.05.22-.05,3.67,0,7.34,0,11.1,0h.56c-1.12.68-1.94,1.62-2.75,2.55Zm-26.63,2.67h1.77c.64,0,1.28-.01,1.91,0,1.14.03,2.11-.37,2.95-1.22,1.2-1.21,2.4-2.41,3.6-3.61,1.1-1.1,2.21-2.2,3.31-3.31.45-.46.86-.61,1.32-.53.54.11.88.41,1.04.92.17.51.04.95-.38,1.38l-.54.55c-1,1.01-2.02,2.05-3.07,3.05-.84.8-1.22,1.72-1.15,2.8.03.51.02,1.02.02,1.55,0,.24,0,.48,0,.73v.25h2.21v-2.32c.09.04.18.08.26.12.41.19.8.37,1.16.59.95.57,1.98.81,3.24.78,1.85-.05,3.74-.03,5.56-.02h.9c.87-.02,1.6-.29,2.22-.91l.91-.91c.97-.98,1.95-1.96,2.94-2.93.4-.39.91-.54,1.38-.41.46.13.79.5.92,1.02.11.44-.01.85-.37,1.2-1.58,1.6-3.06,3.08-4.53,4.53-.57.57-1.32.73-2.24.89-1.4.24-2.8.49-4.21.75-1.03.19-2.07.37-3.1.55-.24.04-.51.06-.82.06-4.72,0-9.44,0-14.17,0h-3.03v-5.59Z"/>
      <path class="cls-1" d="m3.49,8.92l.03.22h2.08l.04-.2c.41-2.16,1.11-2.87,3.29-3.29l.2-.04v-2.07l-.2-.04c-2.16-.42-2.87-1.12-3.3-3.29l-.04-.2h-2.08l-.03.22c-.26,1.96-1.3,3-3.28,3.28l-.22.03v2.09l.22.03c1.96.25,3,1.29,3.28,3.28Zm.24-4.36l.82-.82.83.82-.84.82-.81-.82Z"/>
      <path class="cls-1" d="m7.4,28.04l-.02-.22h-2.13l-.03.21c-.32,2.06-1.21,2.94-3.26,3.26l-.21.03v2.15l.23.02c.94.07,1.68.39,2.26.96.56.56.88,1.3.98,2.27l.02.22h2.16l.02-.23c.07-.93.38-1.67.96-2.26.56-.56,1.3-.88,2.27-.98l.23-.02v-2.16l-.23-.02c-.94-.08-1.68-.39-2.26-.97-.56-.56-.88-1.3-.98-2.27Zm-.26,4.35l-.82.81-.85-.82.85-.83.81.85Z"/>
    </g>
  </g>
</svg>