<?xml version="1.0" encoding="UTF-8"?>
<svg id="Layer_2" data-name="Layer 2" xmlns="http://www.w3.org/2000/svg" viewBox="0 0 57.47 61.51">
  <defs>
    <style>
      .cls-1 {
        fill: #131f48;
      }
    </style>
  </defs>
  <g id="Untitled-1_Image" data-name="Untitled-1 Image">
    <g>
      <path class="cls-1" d="m57.39,54.41c-.18-1.15-.71-2.19-1.56-3.08-.82-.86-1.82-1.44-2.98-1.73-1.11-.27-2.18-.14-2.99.04v-.61c-.02-1.36-.03-2.72-.03-4.07,0-.14.09-.34.17-.5.45-.98.56-1.83.34-2.69-.07-.27-.16-.54-.25-.82l-.08-.25c.08-.14.16-.28.25-.42.24-.42.48-.83.69-1.25.95-1.97,1.47-4.1,1.6-6.53.15-2.75-.11-5.19-.8-7.45-.91-2.96-2.34-5.3-4.39-7.16-.17-.15-.36-.29-.55-.43l-.47-.34-.22.15c-.08.05-.15.1-.23.14-.18.11-.34.21-.5.35-.33.32-.65.64-.98.97l-.35.36-.9-2.1c-.89-2.06-1.77-4.12-2.68-6.16l-.16-.35c-.51-1.18-.58-1.25-1.79-1.79l-3.9-1.78v-.36c-.02-1.89-.76-3.51-2.19-4.82C31.2.58,29.65,0,27.84,0h-.55c-2.22,0-4.44,0-6.66,0-.44,0-.88.05-1.26.1-2.58.31-4.87,2.38-5.44,4.92-.11.47-.16.94-.22,1.43-.02.16-.04.32-.06.48-.05.03-.11.06-.16.08l-.95.44c-1.04.49-2.08.97-3.13,1.44-.57.26-.97.65-1.21,1.21-.16.37-.32.74-.49,1.11-.17.39-.35.79-.52,1.18-2.31,5.41-4.08,10.89-5.25,16.3-.51,2.35-.94,4.75-1.35,7.07l-.15.83c-.18,1.03-.3,2.06-.42,3.28-.11,1.11.16,1.56,1.21,2.02l3.05,1.34c.4.18.79.36,1.2.52.72.29,1.35.18,1.83-.31-.08,1.88-.16,3.76-.25,5.63-.02.5-.05,1-.07,1.49-.03.64-.07,1.28-.09,1.92-.07,1.76-.14,3.52-.19,5.28,0,.31.03.64.11.93.45,1.69,1.85,2.75,3.64,2.76,1.59.01,3.17.01,4.76.01,1.84,0,3.67,0,5.51,0h.56c.78,0,1.49-.21,2.09-.61,1.13-.75,1.7-1.84,1.71-3.26,0-1.79,0-3.59,0-5.38v-2.46s8.18,0,8.18,0c1.14,0,2.29,0,3.43,0,1.68-.02,3.08-.97,3.63-2.49.32-.88.29-1.8-.1-2.83-.49-1.3-.97-2.6-1.46-3.91-.75-2.03-1.51-4.06-2.28-6.08-.71-1.88-.9-3.72-.56-5.6.18.52.36,1.02.56,1.52.46,1.14.96,2.26,1.43,3.31.17.38.4.53.57.59.21.08.42.06.64-.03.18-.08.75-.43.38-1.31l-.06-.14c-1.03-2.09-1.88-4.35-2.61-6.9l-.15-.53c-.36-1.24-.73-2.52-.83-3.83-.17-2.42-.03-4.64.44-6.8.34-1.57.89-2.81,1.67-3.82l.07-.1c.15-.2.22-.28.25-.3.11.02.15.06.27.35l.82,1.85c.62,1.4,1.25,2.79,1.84,4.2.39.92.75,1.84,1.1,2.76.14.36.28.72.42,1.07l-.26.46c-.25.43-.48.84-.69,1.27-.95,1.97-1.52,4.11-1.76,6.54-.2,2.09-.1,4.17.3,6.19.41,2.06,1.16,3.89,2.22,5.45-.64,1.34-.61,2.67.09,3.96.06.11.09.27.09.43,0,1.52-.02,3.03-.03,4.55-1.57-.37-2.97-.22-4.28.46-1.49.77-2.51,1.97-3.02,3.56-.93,2.88.46,6.01,3.23,7.29,2.43,1.12,5.74.64,7.65-2.32,1.96,2.97,5.17,3.36,7.45,2.4,2.18-.91,4.15-3.31,3.63-6.62Zm-11.11-9.45c-.65,0-1.25-.24-1.7-.69-.44-.44-.69-1.04-.69-1.69,0-.65.25-1.26.72-1.71.45-.44,1.03-.68,1.65-.68h.02c1.27.01,2.37,1.1,2.39,2.38.01.62-.23,1.22-.67,1.67-.46.47-1.07.72-1.72.73h0Zm-2.5-5.73c-3.06-4.5-2.81-13.97,1.54-18.86.07,3.43.09,16.3.02,18.11l-1.56.74Zm1.51,12.32c.06-.44-.34-.76-.47-.87-.09-.07-.18-.14-.28-.2v-4.12l.83.31v2.46c.03,1.97.04,3.93.05,5.9,0,.55-.03,1.27-.29,1.95-.66,1.75-2.32,2.85-4.21,2.74-2.03-.12-3.66-1.57-3.96-3.52-.28-1.81.36-3.28,1.83-4.25.75-.5,1.53-.75,2.32-.75s1.53.23,2.32.68c.16.09.31.19.46.3l.41.27.19-.09c.31-.15.73-.39.79-.8Zm1.88-13.07v-18.17c4.43,4.92,4.65,14.29,1.61,18.94l-1.61-.77Zm-.02,8.19l.89-.34v4.16c-.09.06-.18.13-.26.2-.13.11-.52.43-.45.87.06.42.48.65.79.79l.18.08.34-.21c.13-.08.26-.17.4-.26,1.21-.82,2.74-.98,4.07-.42,1.32.54,2.23,1.66,2.51,3.07.24,1.21.02,2.34-.64,3.28-.67.94-1.78,1.63-2.89,1.79-2.16.31-4.29-1.13-4.76-3.22-.07-.3-.1-.61-.1-.94-.03-2.54-.04-5.08-.06-7.62v-1.22ZM31.4,11.09c-1.61,1.74-3.2,3.55-4.73,5.3l-1.59,1.8v-.59c0-.62,0-1.24,0-1.86,0-.22.05-.38.21-.58.62-.78,1.24-1.56,1.86-2.35.62-.78,1.23-1.57,1.85-2.35.62-.78.91-1.59.87-2.5,0-.17,0-.34,0-.52,0-.33,0-.67-.04-1.01-.26-1.65-1.58-2.78-3.28-2.82-1.63-.04-3.22-.04-4.72,0-2.09.05-3.32,1.74-3.31,3.37,0,.04,0,.08,0,.11-.16,1.49.27,2.78,1.29,3.95.71.81,1.39,1.69,2.04,2.53.38.5.76.99,1.16,1.47.23.29.32.54.31.86-.02.73-.02,1.46-.01,2.24v.04l-1.84-2.07c-1.52-1.71-3.05-3.43-4.58-5.14-.87-.97-1.32-2.04-1.37-3.24v-.11c-.04-.75-.07-1.46.11-2.15.55-2.18,2.42-3.67,4.63-3.71,1.34-.02,2.67-.03,3.98-.03s2.6.01,3.86.03c2.44.04,4.37,1.73,4.71,4.11.3,2.14-.16,3.84-1.41,5.2Zm-10.92-4.89c.3-.52.77-.79,1.38-.79.8-.01,1.64-.02,2.49-.02.71,0,1.42,0,2.13.02.98.02,1.6.68,1.61,1.71q.02,1.62-1,2.91l-2.75,3.48c-.05.07-.11.13-.16.2l-3.65-4.66c-.33-.53-.35-2.32-.04-2.86Zm-6.25,53.53c-.85,0-1.71,0-2.56,0-.68,0-1.37.01-1.83-.09-.76-.17-1.35-.9-1.38-1.68-.02-.55,0-1.1.02-1.65.13-3.02.26-6.04.39-9.06.05-1.08.1-2.15.15-3.23.06-1.15.11-2.31.16-3.46.01-.26.09-.51.24-.81,2.16-4.1,3.61-7.35,4.71-10.54.45-1.29.83-2.62,1.2-3.91l.39-1.33c.08-.28.12-.59.12-.93-.01-3.2-.53-6.08-1.58-8.81-.66-1.71-1.5-3.14-2.58-4.42l2.14-1c.04.2.09.38.14.56.29.99.8,1.9,1.51,2.71,2.11,2.36,4.21,4.72,6.31,7.09l1.05,1.18c.13.15.26.3.39.45l.07.08v9.24c0,9.04,0,18.08.02,27.12,0,.82-.22,1.47-.65,1.89-.42.42-1.05.64-1.84.61-1.34-.02-2.7-.03-4.05-.03-.86,0-1.71,0-2.55,0ZM9.99,10.62h0s.05.01.12.08c.25.26.5.56.79.95,1.14,1.55,1.94,3.39,2.52,5.77.4,1.66.62,3.33.67,4.94.02.64-.05,1.25-.21,1.86-.98,3.78-2.45,7.61-4.49,11.72-.7,1.41-1.46,2.83-2.19,4.19-.32.59-.63,1.18-.94,1.77-.04.07-.08.14-.14.22l-4.33-1.9.03-.31c.03-.4.06-.8.12-1.19l.11-.68c.28-1.77.56-3.6.88-5.39.74-4.13,1.81-8.28,3.28-12.68,1-3,2.2-6.02,3.58-9.06.03-.06.05-.12.08-.17.06-.1.11-.13.12-.13Zm15.13,21.02v-1h8.89v1h-8.89Zm0,1.84h3.32l.07.39c.08.45.16.91.24,1.36l.79,4.58c.03.16.07.41.27.56.2.15.5.32.79.26.3-.06.54-.35.64-.59.1-.23.05-.48.01-.71l-.96-5.51c-.02-.11-.04-.23-.05-.34h4.07l.03.11c.08.29.17.59.28.88.59,1.62,1.19,3.24,1.79,4.85l.94,2.54c.41,1.11.82,2.22,1.25,3.33.24.63.24,1.17-.02,1.69-.33.67-.88,1.04-1.69,1.14-.11.01-.23.01-.41.01h-11.38s0-14.55,0-14.55Zm9.06-10.92c.06.6.23,1.18.39,1.75l.12.43c.09.33.1.62.03.96-.16.79-.3,1.59-.44,2.41l-.12.71h-9.02v-8.02l3.47-3.91c1.39-1.57,2.78-3.13,4.18-4.69.95-1.06,1.51-2.17,1.74-3.39.53.22,1.05.46,1.59.71.18.08.36.17.54.25-.01.02-.03.03-.04.05-.96,1.24-1.63,2.76-2.05,4.63-.57,2.55-.69,5.21-.38,8.11Z"/>
      <path class="cls-1" d="m33.91,55.02c-.63-.89-1.28-1.78-1.92-2.67l-.38-.53c-.06-.08-.11-.16-.18-.23-.4-.41-.9-.42-1.31-.03-.09.09-.17.19-.28.35l-.27.38c-.65.9-1.29,1.8-1.94,2.71-.1.14-.19.29-.27.42l-.2.33.08.18c.08.18.33.73.82.78.46.06.79-.39.9-.53.26-.35.51-.7.76-1.05l.18-.25v.25c0,.99,0,1.93,0,2.88-.02.91-.6,1.56-1.52,1.69-.21.03-.42.03-.64.03h-.21c-.16,0-.33,0-.49,0-.27,0-.54,0-.81,0-.51.02-.86.34-.89.8-.03.43.29.83.75.93.13.03.25.03.4.03h.37c.19,0,.38,0,.58,0,.2,0,.41,0,.61,0,2.15-.04,3.61-1.52,3.62-3.67,0-.66,0-1.33,0-1.99v-.92s.8,1.12.8,1.12c.11.16.23.32.37.45.27.25.63.3.96.13.38-.19.55-.56.44-.97-.06-.24-.2-.45-.32-.62Z"/>
      <path class="cls-1" d="m51.44,58.56h0c1.69,0,3.06-1.39,3.07-3.09,0-1.72-1.34-3.07-3.06-3.08h-.02c-1.69,0-3.08,1.36-3.1,3.03-.01.8.32,1.61.91,2.2.59.6,1.39.94,2.2.94Zm0-4.4h0c.74,0,1.28.55,1.29,1.3,0,.73-.54,1.29-1.3,1.32-.32.03-.65-.12-.91-.38-.28-.27-.43-.62-.42-.96.02-.72.6-1.28,1.33-1.28Z"/>
      <path class="cls-1" d="m41.16,52.39h-.02c-1.72,0-3.06,1.36-3.06,3.08,0,.82.34,1.63.94,2.22.57.56,1.32.87,2.1.87h.04c1.76-.02,3.09-1.37,3.1-3.12,0-.8-.31-1.55-.88-2.12-.58-.58-1.39-.92-2.22-.92Zm1.33,3.07c0,.7-.62,1.32-1.31,1.33-.31,0-.67-.13-.92-.38s-.4-.61-.4-.97c0-.74.56-1.27,1.3-1.27h.01c.73,0,1.32.59,1.31,1.29Z"/>
    </g>
  </g>
</svg>